<?xml version="1.0" encoding="UTF-8" standalone="no"?>
<svg
   width="1177.2137"
   zoomAndPan="magnify"
   viewBox="0 0 882.91031 369.92268"
   height="493.23026"
   preserveAspectRatio="xMidYMid"
   version="1.0"
   id="svg11"
   xmlns="http://www.w3.org/2000/svg"
   xmlns:svg="http://www.w3.org/2000/svg">
  <defs
     id="defs4" />
  <g
     id="g11"
     style="display:inline"
     transform="translate(43.286269,46.0789)">
    <path
       fill="#d3d3d3"
       d="m 564.56641,79.238281 c -0.25,0.246094 -0.45313,0.777344 -0.51172,0.820313 -0.75782,0.527344 -3.20313,-1.167969 -3.77735,-1.738282 -2.6289,-2.621093 -1.73828,-6.070312 -1.53515,-9.40625 7.41797,-0.296874 12.82812,-7.449218 9.29297,-14.523437 -0.94532,-1.890625 -3.35938,-4.386719 -5.53907,-4.675781 -1.85937,-0.25 -4.34765,0.453125 -5.58984,1.917968 -0.91797,1.085938 -0.21875,1.613282 -2.25781,1.054688 -9.47657,-2.585938 -19.56641,-18.949219 -21.58985,-28.042969 -0.16406,-0.730469 -0.60547,-2.332031 -0.24609,-2.929687 0.23047,-0.382813 4.30469,-1.785156 5.05469,-2.003906 15.55078,-4.59375 30.71484,3.792968 35.59765,19.035156 3.80469,11.875 3.28907,27.335937 -5.23828,37.09375 -1.13281,1.296875 -2.5,2.25 -3.66015,3.398437 z M 579.8125,22.714844 c -3.92188,0.449218 -8.42188,4.441406 -8.85547,8.441406 -0.11719,1.046875 0.98828,2.273438 1.45703,3.292969 3.09375,6.71875 4.6875,16.042969 3.82422,23.371093 -0.99609,8.460938 -4.69141,16.777344 -11.53516,22.039063 -0.49218,1.003906 0.14063,2.324219 1.02735,2.863281 7.6914,1.164063 15.30078,2.78125 22.94531,4.1875 l 0.72656,-8.394531 c 0.98828,-10.207031 2.6836,-20.410156 3.41407,-30.644531 0.69921,-9.835938 1.71093,-26.828125 -13.00391,-25.15625 z M 421.23047,237.96875 h 130.9375 v 84.28516 c 0,0.0234 -0.33985,0.36328 -0.36328,0.36328 H 421.23047 Z m 72.03515,45.60547 c 4.58204,-5.76563 -0.72265,-14.32031 -7.60546,-13.19922 -2.97266,0.48437 -5.97657,3.19922 -6.82422,6.07031 -2.38282,8.0586 8.60547,14.45703 14.42968,7.12891 z M 521.37891,38.503906 c 4.60937,-3.886718 8.95703,-9.824218 10.10156,-15.808594 -0.44531,-0.460937 -4.41406,2.476563 -4.98438,2.921876 -4.36718,3.445312 -8.79687,9.335937 -8.88672,15.078124 0.37891,0.386719 3.28907,-1.789062 3.76954,-2.191406 z M 721.99219,181.46875 c -6.17578,-1.98438 -12.45703,-3.72656 -18.6836,-5.53125 0.0234,0.33594 0.0156,0.65234 -0.1289,0.96875 -0.45703,0.98828 -2.0625,2.92187 -2.7461,4.06641 -8.42578,14.03906 -14.3789,28.41015 -18.47656,44.29296 -0.85547,3.32032 -1.38281,7.09375 -2.375,10.27735 -0.19531,0.62109 -0.65234,1.03906 -0.61328,1.69531 h 15.45703 c 0.0625,0 0.60547,0.76563 0.60547,0.85156 v 84.52735 h 44.53906 c 0.78906,-2.82813 0.5625,-5.75782 0.72656,-8.63672 1.6211,-28.25 4.55079,-56.3711 5.3711,-84.63672 0.26953,-9.34375 0.74609,-21.03125 -1.05469,-30.10547 -2.42969,-12.26953 -12.12109,-14.39453 -22.62109,-17.76953 z m -94.67969,89.64453 c -6.78906,0.96484 -8.17969,10.90234 -2.35938,14.15234 4.16016,2.32032 10.7461,0.16016 11.40625,-4.86718 0.77344,-5.88672 -3.04296,-10.14063 -9.04687,-9.28516 z m 30.60937,-91.27344 c -9.60546,3.46094 -19.28906,5.70313 -28.84765,8.8711 -0.98047,0.32422 -1.94922,0.65625 -2.85156,1.16015 -7.9961,12.57032 -14.45704,26.07422 -20.55469,39.66016 -0.875,1.95312 -2.40625,4.82812 -3.00781,6.72656 -0.10547,0.32813 -0.15235,0.63672 -0.11329,0.98047 h 41.86329 c 0.0273,-5.70703 1.63671,-11.58203 3.28515,-17.02734 4.32422,-14.30469 10.92578,-28.23438 17.04688,-41.82813 l 0.10937,-0.98047 c -0.34375,-0.0586 -0.64844,0.0234 -0.97656,0.11328 -1.79297,0.48438 -4.10547,1.65625 -5.95313,2.32422 z"
       fill-opacity="1"
       fill-rule="nonzero"
       id="path7" />
    <path
       fill="#000000"
       d="m 591.64844,69.734375 c -0.4375,3.660156 -0.875,7.316406 -1.27344,10.972656 -0.21484,1.980469 -0.16406,4.03125 -0.72656,5.960938 4.96484,1.0625 10.51172,1.722656 15.32812,3.289062 7.67578,2.496094 9.39453,9.875 11.56641,16.898439 3.13672,10.14062 5.6289,21.16797 7.84375,31.57031 1.78125,8.37109 5.41015,22.92578 4.17578,31.04297 -1.44531,9.52344 -8.79688,13.86719 -17.49219,15.96094 0.67578,2.5 1.5,4.96484 2.1211,7.48047 1.04687,4.25781 1.83203,8.62109 2.5,12.94921 l 6.86328,-12.23437 c 1.87109,-2.80859 2.17968,-4.64844 5.59765,-5.83594 5.31641,-1.84765 11.2461,-3.04297 16.6875,-4.73047 7.08594,-2.1914 14.03125,-4.8164 20.98047,-7.37109 -0.10937,-2.19531 -1.74609,-3.31641 -3.78906,-3.61719 -2.85547,-0.42187 -5.82813,-0.0234 -8.67578,-0.57031 -12.35156,-2.37891 -11.30469,-16.67578 -11.86328,-26.33203 -0.21485,-3.71094 -0.54688,-7.46875 -0.73438,-11.1836 -0.15625,-3.05859 -0.0234,-6.1914 -0.48047,-9.20312 -1.67578,-0.57812 -3.52343,-0.96094 -4.85156,-2.25391 -5.26172,-5.11718 -0.0352,-12.22265 4.24219,-15.91015 13.55469,-11.691409 41.20312,-14.300784 56.74609,-5.64063 10.34766,5.76563 12.75,14.79297 13.46094,25.95313 0.67187,10.49609 0.37891,27.54687 -8.26563,35.02734 -2.93359,2.53906 -7.25781,4.61719 -11.20312,4.25391 l 0.25,4.61328 c 3.34766,0.66406 6.53516,1.97656 9.78516,2.99219 10.53125,3.29687 23.34375,6.08593 33.21093,10.59375 13.17188,6.01171 12.8086,15.70703 13.20703,28.63671 0.79688,25.75391 -1.98828,52.16016 -3.88281,77.82422 -0.68359,9.24219 -0.98437,18.51563 -1.70312,27.73047 -0.14844,1.86328 0.0195,3.45313 -1.00782,5.19922 l -386.58593,0.043 c -10.83594,-1.14844 -7.82422,-13.03125 -6.60938,-20.49219 2.56641,-15.73437 5.75,-31.82422 9,-47.4375 2.39453,-11.5 5.16406,-25.22265 10.59766,-35.625 4.96094,-9.5 13.28906,-12.76172 22.68359,-16.73437 8.85547,-3.75 17.92969,-7.03125 26.84766,-10.63282 0.28515,-0.11718 0.85547,-0.17578 0.89453,-0.19921 0.48047,-0.30079 -0.21875,-0.46485 -0.3125,-0.54688 -0.28125,-0.24219 -0.71094,-0.44141 -0.97656,-0.67187 -0.21094,-0.1836 -0.14453,-0.52735 -0.29297,-0.48047 -0.60156,0.17968 -2.06641,1.36328 -2.875,1.74609 -2.33594,1.10547 -5.42578,2.17188 -7.79688,0.64453 -3.45312,-2.21875 -1.0625,-7.41406 1.05469,-9.8125 -1.25,-1.07812 -2.66406,-1.72656 -3.05469,-3.51172 -0.32812,-1.51953 0.48828,-2.51953 0.86719,-3.90625 -3.63672,-0.50781 -7.51562,-1.93359 -9.97656,-4.74609 -6.66016,-7.62891 -2.625,-17.38281 5.34765,-21.89063 -1.64843,-1.83203 -3.09765,-3.89843 -4.00781,-6.20312 -4.78515,-12.10547 4.15625,-22.04687 15.64453,-24.49219 1.6836,-0.35937 3.48438,-0.74609 5.16016,-0.32031 -0.0391,-3.08203 0.32812,-6.50391 3.65625,-7.65625 3.13281,-1.08594 6.13672,0.28125 8.26953,2.55078 2.92578,-11.21094 17.0625,-10.875 23.96875,-3.69922 1.58203,-1.04297 3.05469,-2.21484 4.86328,-2.8789 6.40235,-2.34375 13.15235,1.2539 17.02735,6.35547 1.94531,2.5625 3.21875,5.97656 3.0664,9.21484 7.88281,0.51562 11.64063,7.33203 8.5586,14.52734 -0.96875,2.25781 -2.79297,4.59766 -4.9336,5.82031 2.48828,6.23829 -1.03515,12.73829 -8.02734,12.60157 -0.3086,0.21484 -0.19922,0.96093 -0.34375,1.36328 -0.57813,1.6289 -2.23828,3.10937 -4.02344,3.15625 0.0156,0.54687 0.22656,1.0039 0.25781,1.5664 0.4375,7.94922 0.88282,16.75 -8.51953,18.75391 -2.14062,0.45703 -5.92187,0.58984 -7.53515,2.48438 -0.15235,0.17578 -0.77735,0.8164 -0.9961,2.08984 -0.17969,1.06641 -0.21484,2.78516 -0.17969,3.91406 0.0274,0.92969 0.0977,1.34375 0.21094,1.6875 0.10156,0.30078 0.3125,0.31641 0.5586,0.41406 1.96875,0.79688 5.04296,1.19922 7.20703,1.80079 8.16015,2.26171 21.25781,5.90234 28.39062,10.05468 5.58594,3.25782 9.1211,12.34766 12.20313,17.96875 2.43359,4.4336 5.02734,8.81641 7.39062,13.28907 0.46485,0.88671 1.02735,1.83984 1.19141,2.82031 l 9.80469,0.0352 15.24218,-52.30859 -11.73828,4.19922 c -8.92969,2.74609 -26.7539,7.45312 -29.52344,-5.65234 -1.67968,-7.95704 2.75,-21.52735 5.1211,-29.44532 3.99609,-13.37109 8.69531,-27.78125 14.12109,-40.61328 2.33594,-5.52734 3.66016,-8.96484 9.19922,-11.96875 5.98438,-3.242185 12.92188,-5.277341 19.07422,-8.183591 0.65625,-0.308594 2.41016,-0.992188 2.51172,-1.621094 0.40625,-2.558594 -2.04297,-3.320313 -4.07813,-3.714844 -6.46875,-1.246093 -12.32031,-1.269531 -16.57031,-7.277343 -1.85937,-2.628907 -2.94531,-6.417969 -3.58984,-10.589844 l -0.22657,-1.668043 c -0.84765,-6.769531 -0.6914,-14.242187 -0.83984,-19.332031 -0.15234,-5.277344 -1.05469,-8.960938 1.28125,-14.027344 2.52344,-5.476562 7.42578,-10.113281 13.1875,-13.226562 l 3.34766,-1.632819 c 0.0312,0 0.0508,0.01172 0.0781,0.01563 5.07422,-2.097656 10.54688,-3.03125 15.53516,-2.351562 2.58203,0.351562 5.17969,1.152343 7.66406,2.285156 0.0703,-0.01953 0.14063,-0.04687 0.22656,-0.04687 z m -56.94532,-41.625 c 3.14844,8.644531 10.65235,20.289063 19.48829,23.820313 0.37109,0.144531 0.65234,0.238281 0.88281,0.292968 0.42578,-0.382812 0.85156,-0.765625 1.27344,-1.148437 0.1875,-0.167969 0.39453,-0.222657 0.59375,-0.207031 0.0664,-0.0625 0.14062,-0.128907 0.21875,-0.195313 3.86718,-3.210937 8.93359,-1.035156 11.11718,2.992187 3.96875,7.308594 -1.08984,15.199219 -9.03906,15.746094 -0.80469,4.355469 -0.46484,8.511719 4.21484,10.171875 3.04688,-2.542969 5.62891,-5.230469 7.58204,-8.71875 7.27734,-12.996093 5.10546,-35.535156 -6.82422,-45.246093 -8.59766,-7 -18.24219,-8.597657 -28.66016,-4.570313 -0.34766,0.136719 -2.26562,0.839844 -2.33984,0.945313 -0.41797,0.597656 1.15234,5.175781 1.49218,6.117187 z m -16.60546,11.855469 c 0.14843,0.164062 1.52734,-0.832032 1.78125,-1.011719 5.07031,-3.601563 9.10156,-9.691406 11.11718,-15.527344 -0.41406,-0.08203 -0.64062,0.210938 -0.95312,0.386719 -5.50781,3.121094 -11.11719,9.761719 -11.94531,16.152344 z m -0.2461,1.953125 c 0.12891,0.269531 0.23047,0.527343 0.25,0.835937 0.28906,4.136719 0.32813,8.292969 0.40235,12.445313 0.0156,-0.01172 0.0312,-0.02734 0.0469,-0.04297 2.28125,-1.726562 5.60156,-2 8.32031,-1.398438 1.63282,0.363282 3.51953,1.238282 4.40625,2.714844 0.47657,-0.496094 1.05078,-0.902344 1.73047,-1.023437 1.17188,-0.210938 2.13672,0.351562 2.91406,1.140625 0.28907,-0.535156 0.70313,-1.023438 1.24219,-1.433594 2.28125,-1.726562 5.60156,-2 8.31641,-1.398438 1.73828,0.386719 3.7539,1.351563 4.55469,2.996094 1.19531,-1.074218 2.38671,-2.144531 3.57812,-3.21875 -0.9375,-0.40625 -1.89844,-0.875 -2.33984,-1.121094 -8.625,-4.773437 -16.1211,-16.808593 -18.95313,-26.058593 -0.0976,-0.324219 -0.11719,-0.652344 -0.10937,-0.984375 l -2.57422,5.089844 c -3.01563,4.492187 -6.6836,9.289062 -11.78516,11.457031 z m 30.95703,16.214843 c -0.12109,-2.054687 -3.16797,-2.855468 -4.78515,-3.019531 -2.04688,-0.207031 -4.61719,0.07813 -6.19922,1.539063 -0.48438,0.445312 -0.88672,1.046875 -0.8086,1.730468 0.0898,0.769532 0.73438,1.382813 1.34766,1.78125 1.88281,1.21875 4.44531,1.429688 6.59766,0.976563 1.42187,-0.300781 3.75781,-1.128906 3.85156,-2.890625 -0.004,-0.03906 -0.004,-0.07813 -0.004,-0.117188 z m -16.15625,-0.800781 c 0,0.0039 0.0274,-0.01953 0.0547,-0.04297 -0.0273,0.01563 -0.0547,0.03516 -0.0547,0.04297 z m -14.0625,1.644531 c 0.25391,0.496094 0.71485,0.898438 1.16016,1.1875 1.88281,1.21875 4.44531,1.429688 6.59766,0.976563 1.4375,-0.304687 3.80468,-1.144531 3.85546,-2.941406 -0.0586,-2.105469 -3.15625,-2.921875 -4.79296,-3.085938 -2.04688,-0.207031 -4.61719,0.07813 -6.19922,1.539063 -0.27344,0.253906 -0.51172,0.558594 -0.66016,0.902344 0.0117,0.472656 0.0273,0.949218 0.0391,1.421874 z m 24.44141,29.40625 c 1.94531,2.925782 -0.52734,7.265626 -0.35938,10.324219 0.0547,1.042969 0.38282,2.718749 0.60157,3.781249 0.52343,2.55078 1.57422,4.97656 2.08203,7.53125 0.30078,0.37891 6.23047,-5.57031 6.69531,-6.07422 4.45313,-4.804685 9.35156,-11.281248 11.84375,-17.35156 0.29688,-0.722656 1.125,-2.730469 0.8125,-3.328125 -0.12109,-0.238281 -0.52734,-0.460937 -0.72266,-0.742187 -0.23828,-0.339844 -0.30859,-0.789063 -0.6289,-1.078126 -0.66406,-0.597656 -2.32031,-1.0625 -3.27344,-1.835937 -3.08203,-2.492187 -3.54687,-7.492187 -2.30859,-11.054687 0.42968,-1.238282 2.16406,-0.839844 3.45312,-1.171876 4.85156,-1.25 7.80469,-5.988281 6.40235,-10.882812 -0.61719,-2.160156 -2.5586,-5.128906 -4.92969,-5.53125 -1.50781,-0.257812 -3.77344,0.08984 -4.85547,1.238281 -0.38281,0.40625 -0.61719,1.308594 -0.86719,1.5625 -0.14062,0.144531 -1.01562,0.507813 -1.23828,0.492188 -0.11719,-0.0078 -0.28125,-0.04687 -0.46484,-0.09766 -1.63672,1.472657 -3.27735,2.945313 -4.91407,4.421876 -0.35937,2.722656 -3.625,3.949218 -6.01562,4.242187 -2.61328,0.324219 -5.87891,-0.144531 -7.80078,-2.121094 -0.64063,-0.660156 -0.97656,-1.410156 -1.04297,-2.164062 -0.25,-0.367188 -0.49609,-0.6875 -0.83984,-1.007813 -0.0703,-0.06641 -0.14063,-0.125 -0.21485,-0.1875 v -0.0039 c -0.0351,-0.02344 -0.0664,-0.04687 -0.0976,-0.06641 -0.11329,-0.07813 -0.23438,-0.136719 -0.35157,-0.199219 -0.0234,-0.01172 -0.0664,-0.03125 -0.10937,-0.04297 -0.0547,-0.01953 -0.10938,-0.03516 -0.16797,-0.04687 -0.0117,-0.0039 -0.0234,-0.0039 -0.0352,-0.0078 -0.0391,0 -0.10156,-0.0078 -0.12109,-0.0078 -0.0547,0 -0.10938,0.0039 -0.16797,0.0039 -0.0937,0.02344 -0.18359,0.04688 -0.27344,0.07422 -0.0117,0.0039 -0.008,0 -0.0117,0.0039 -0.043,0.01953 -0.0859,0.03906 -0.125,0.0625 -0.0859,0.04687 -0.16796,0.09766 -0.24609,0.152343 -0.004,0.0039 -0.0156,0.01172 -0.0234,0.01563 -0.0312,0.02734 -0.0625,0.05078 -0.0937,0.07813 -0.0703,0.0625 -0.14062,0.128907 -0.20703,0.195313 -0.0664,0.07031 -0.13281,0.140625 -0.19531,0.214844 -0.0273,0.03125 -0.0547,0.0625 -0.082,0.09375 -0.082,0.117187 -0.16797,0.230468 -0.24219,0.351562 -0.0508,0.07813 -0.0898,0.15625 -0.13672,0.238281 -0.26953,2.8125 -3.59765,4.074219 -6.02734,4.371094 -2.30078,0.285156 -5.10547,-0.04687 -7.05469,-1.480469 0.082,1.921875 0.19922,3.835938 0.39063,5.742188 0.89843,9.074218 3.30078,15.542968 12.89843,17.757812 3.22266,0.746094 9.14453,0.636719 11.06641,3.535156 z m 15.29687,82.648438 c 8.32032,-3.82422 16.71485,-7.48828 24.99219,-11.39063 0.0899,-0.42578 -0.11719,-0.48437 -0.40234,-0.6914 -2.94531,-2.13672 -11.78125,-3.14063 -15.53516,-3.44531 -11.54297,-0.9336 -23.80469,-0.1836 -35.26172,1.73828 -6.18359,1.03515 -12.36328,2.42968 -18.23828,4.58203 -0.1914,0.10156 -0.88672,2.2539 -1.01953,2.68359 -1.75391,5.54688 -2.11328,12.09375 -1.58594,17.88281 0.21485,2.33204 0.83594,4.625 1.22266,6.92969 16.17187,-3.64453 30.89844,-11.42578 45.82812,-18.28906 z m -137.89843,-3.41406 c 1.28906,0.27734 4.28906,-0.28125 5.18359,0.17187 0.67969,0.34375 1.63281,4.01172 1.87891,4.9336 1.22656,4.67578 2.65234,12.96093 0.4414,17.33593 -0.51953,1.02344 -1.3164,1.96094 -2.26953,2.6875 2.25,1.70703 4.74219,3.09375 7.4961,3.79297 5.8125,1.47656 12.4375,-0.76953 16.33984,-5.33203 0.0742,-0.0859 0.15625,-0.14453 0.23828,-0.18359 -0.57031,-2.15235 -0.043,-7.04688 0.38672,-8.16407 0.29687,-0.76953 0.82812,-1.48437 1.78516,-2.16406 4.13671,-2.93359 10.80468,-0.74609 13.5039,-6.20312 1.44531,-2.92969 1.21875,-9.63672 1.08594,-13.02735 -0.24219,-6.25781 -1.39453,-12.51172 -2.16797,-18.75 -0.23437,-1.8789 -0.40625,-3.80078 -0.51172,-5.6914 -0.1914,-0.19532 -2.17578,0.9414 -2.67578,1.08984 -4.55078,1.34766 -8.72656,-0.0859 -12.28906,-2.79687 -0.21094,-0.16016 -0.24219,-0.33594 -0.60938,-0.24219 -1.32812,5.32812 -6.57422,9.71875 -12.16797,7.29687 0.24219,4.88672 -1.33593,12.32813 -7.04687,13.26953 -3.46875,0.57032 -4.23828,-2.17968 -7.18359,-2.08984 -5.02344,0.14844 -7.71094,4.82031 -6.01954,9.42578 0.66797,1.82031 2.63672,4.22266 4.60157,4.64063 z m -43.73828,44.32031 c 1.53515,0.49609 3.02734,1.15625 4.57031,1.64062 20.0625,6.30469 50.6914,3.47266 69.09765,-6.94531 4.67969,-2.64844 9.48438,-6.27344 12.00391,-11.10547 l -11.57812,-3.53906 c -0.0274,0.11328 -0.0781,0.22656 -0.16797,0.33594 -0.52344,0.60937 -1.13282,1.15234 -1.7461,1.66406 -2.88672,2.41016 -6.36328,4.08203 -10.11718,4.51172 -5.38282,0.61328 -10.37891,-1.64453 -14.53125,-4.88281 -1.04688,0.48047 -2.19532,0.70703 -3.34375,0.55078 -0.52735,-0.0742 -1.00782,-0.42188 -1.5,-0.46485 -0.89844,-0.0859 -6.37891,2.21875 -7.70313,2.72657 -7.92187,3.03906 -16.19922,6.23437 -23.95703,9.6289 -3.21094,1.40235 -7.94141,3.33985 -10.71875,5.33203 -0.21484,0.15625 -0.44141,-0.0195 -0.30859,0.54688 z m 43.32031,91.22266 c -6.96875,-1.91016 -13.78516,-4.48438 -20.87891,-6.01172 -4.0625,-0.8711 -9.18359,-1.8086 -13.30469,-2.02735 -1.11718,-0.0586 -6.19921,0.27344 -6.65234,-0.28515 -0.11328,-0.14063 -0.19531,-0.73438 -0.16797,-0.94922 l 9.85156,-27.70313 h -33.09765 c -1.46094,8.27735 -3.28906,16.48828 -4.80078,24.75782 -1.01563,5.54296 -2.20313,11.43359 -2.96094,16.98437 -0.35938,2.61328 -0.79688,5.86719 -0.49219,8.46875 0.13281,1.11719 1.17969,3.57813 2.07813,4.24609 0.51953,0.38672 3.05468,1.49219 3.62109,1.49219 h 66.80469 z M 551.67969,238.45312 H 421.71484 v 83.67969 H 551.67969 Z M 684.6875,217.53516 c -1.91797,6.34375 -3.35156,12.8125 -4.98828,19.21875 h 14.96875 c 0.0586,0 0.85156,0.78906 0.85156,0.84765 v 84.53125 h 43.44141 c 0.30078,0 0.53906,-1.47265 0.58593,-1.85156 0.26954,-2.17578 0.14454,-4.35547 0.26563,-6.54297 1.57422,-28.32812 4.57422,-56.50391 5.36719,-84.87891 0.25781,-9.17968 0.80859,-21.79687 -1.29688,-30.59375 -2.62109,-10.96875 -12.6289,-13.26953 -22.13281,-16.30859 -5.92188,-1.89453 -11.92969,-3.64844 -17.92188,-5.25781 -8.23046,12.69922 -14.7539,26.30859 -19.14062,40.83594 z m -18.90625,-59.77735 c 0.004,-0.17969 0.004,-0.36719 -0.0781,-0.52344 -0.11328,-0.22656 -0.36328,-0.34765 -0.59765,-0.44921 -6.96094,-3.03125 -14.10547,-2.52735 -21.35938,-1.19532 0.52344,4.89063 1.76563,9.65235 5.0625,12.1836 0,0 4.97657,-0.52344 11.34766,-1.96094 4.09375,-0.92188 5.52734,-4.05078 5.625,-8.05469 z m 1.99609,19.51953 c 0.45703,4.03907 0.13282,8.39844 0.96875,12.40625 0.0703,0.33594 -0.0273,0.61328 0.36719,0.84766 6.71094,-6.33203 13.34375,-12.75 19.95313,-19.20313 -0.3086,-2.46875 -0.23047,-4.95312 -0.35938,-7.42968 -0.10156,-1.91407 -0.39453,-3.92188 -0.49219,-5.83594 -0.23828,-4.62109 1.33203,-3.20313 4.47657,-4.77344 4.16015,-2.07812 5.48046,-5.82812 4.74609,-10.27734 -0.46875,-2.81641 -1.94922,-5.64063 -4.77344,-6.66406 -2.26172,-0.82032 -3.91015,-0.52735 -5.89453,0.80859 -0.81641,0.55078 -0.94531,1.19141 -2.1875,1.45703 -3.75,0.80859 -6.89844,-2.45312 -7.87109,-5.78125 -0.19141,-0.64062 -0.66407,-2.44141 -0.66407,-2.98828 v -6.44531 l -3.40625,1.58203 c -1.77734,0.45703 -3.84375,1.26562 -5.69531,1.07422 -2.7539,-0.28516 -5.73437,-2.16016 -6.10547,-5.08594 -5.97656,2.19922 -12.44922,3.94141 -18.86328,3.89063 l -0.004,0.125 c 0.45312,1.16015 0.17578,2.42578 0.24218,3.64843 0.3086,5.41797 0.66407,10.875 0.98047,16.29297 0.0977,1.69531 0.12891,3.69922 0.21875,5.82031 0.76172,-0.26172 1.74219,-0.53515 1.85938,-0.57031 2.35937,-0.69531 4.8125,-1.07812 7.26953,-1.15625 5.71484,-0.1875 12.45312,1.16406 17.5039,3.875 0.85938,0.46094 1.74219,1.03906 2.11719,1.94141 0.26953,0.65234 0.23828,1.38672 0.14453,2.08593 -0.61328,4.57813 -4.1289,11.875 -9.25781,13.65235 3.51172,0.85156 4.3125,3.05859 4.72656,6.70312 z m -103.92578,61.17578 v 83.67969 h 129.96485 v -83.67969 z m 39.1836,-1.69921 h 40.88671 c -0.125,-2.875 0.47657,-5.72657 1.08985,-8.51954 3.72656,-16.90625 11.96484,-33.67187 18.91015,-49.45312 0.0898,-0.19531 0.4336,-0.5 0.0781,-0.65234 -5.30078,1.96875 -10.60547,3.94531 -15.99609,5.66015 -5.99219,1.90625 -12.16407,3.30078 -18.14063,5.21875 -0.99609,0.32031 -2.47656,0.69922 -3.23047,1.39453 -9.53906,14.52735 -16.35547,30.60547 -23.59765,46.35157 z m -63.35547,-55.17579 c -0.4336,0.20313 -0.91407,0.35547 -1.38282,0.44532 l 2.0625,0.48828 c 19.91407,1.98047 39.87891,4.29297 59.875,2.66797 1.17188,-0.10157 6.46094,-0.23047 7.125,-0.78125 0.25391,-0.21094 1.01954,-2.37891 1.15235,-2.86328 1.59765,-5.9375 0.42578,-15.19922 -2.02344,-20.84375 -0.87891,-2.01954 -4.07422,-7.91016 -6.5,-7.87891 -0.62891,0.004 -5.17578,2.78125 -6.19531,3.30859 -17.6211,9.13672 -36.10547,17.05078 -54.11328,25.45703 z M 592.32812,47.386719 c 0.89063,-9.214844 1.26954,-25.992188 -12.51953,-24.1875 -3.71875,0.484375 -8.18359,4.625 -8.3125,8.503906 6.53516,11.792969 7.60938,27.871094 1,39.890625 -1.82422,3.316406 -4.02734,5.546875 -6.6914,8.15625 -0.45703,0.441406 -0.95703,0.1875 -0.73828,1.195312 0.0547,0.242188 0.75781,1.300782 0.90625,1.34375 1.10937,0.320313 2.8164,0.335938 4.01562,0.554688 6.07031,1.09375 12.11328,2.40625 18.19922,3.339844 l 1.82031,-17.035156 c -0.0586,-0.214844 -0.0312,-0.445313 0.0664,-0.644532 z m -34.3633,-27.78124 c 3.63672,2.160156 9.75002,6.691396 12.09377,9.898427 1.02344,-1.914062 1.85547,-3.535156 3.52344,-4.988281 5.49609,-4.804687 13.97266,-3.96875 17.97656,2.230469 3.42969,5.316406 2.78907,12.4375 2.46875,18.445312 -0.40625,7.640625 -1.47265,16.933594 -2.3789,24.542969 z m 63.22659,263.097641 c -3.92579,-7.52343 4.14062,-15.83203 11.70312,-11.9414 5.49219,2.82422 6.46484,10.53906 1.69531,14.55469 -4.23047,3.55859 -10.84765,2.27734 -13.39843,-2.61329 z m 4.0664,2.01172 c 6.10156,3.25 12.82813,-2.4375 10.19531,-8.97265 -1.23828,-3.08203 -4.71875,-4.60157 -7.89843,-4.14453 -6.29688,0.90625 -7.91407,10.1289 -2.29688,13.11718 z m -146.20312,-2.01172 c -3.92578,-7.52343 4.14453,-15.83203 11.70703,-11.9414 5.49219,2.82422 6.46484,10.53906 1.69531,14.55469 -4.23047,3.55859 -10.84766,2.27734 -13.40234,-2.61329 z m 4.07031,2.01172 c 6.10156,3.25 12.82812,-2.4375 10.19531,-8.97265 -1.24219,-3.08203 -4.71875,-4.60157 -7.89844,-4.14453 -6.29687,0.90625 -7.91406,10.1289 -2.29687,13.11718 z"
       fill-opacity="1"
       fill-rule="nonzero"
       id="path8" />
  </g>
  <g
     id="g12"
     transform="translate(43.286269,46.0789)">
    <path
       fill="#d3d3d3"
       d="m 182.66016,239.81641 c -0.19532,-4.09375 -0.40625,-8.28907 -0.23829,-12.41797 0.0859,-2.11719 0.29297,-5.71875 0.98047,-7.66797 0.76563,-2.16797 4.61328,-4.66797 6.54688,-5.96485 13.41797,-8.97656 29.33594,-14.32812 44.21094,-20.39062 l 0.3125,0.0117 c 0.13281,0.82812 0.83203,1.35937 1.25781,2.04297 2.82812,2.5625 5.4375,6.60547 8.29687,8.99218 2.21875,1.84766 3.33985,0.96875 5.23828,-0.68359 1.63672,-1.42187 3.42579,-3.48047 4.88672,-5.12109 3.01953,-3.39453 5.83203,-7.00782 8.4375,-10.72266 15.08203,3.03516 30.57422,4.55078 45.54688,8.09375 4.14844,0.98047 12.57031,2.83203 15.22265,6.15234 3.36329,4.21485 5.83594,14.88672 7.21485,20.32422 4.89062,19.27344 8.46484,41.32813 10.0664,61.17578 0.0234,0.26172 0.0469,1.42579 -0.004,1.48438 -0.0195,0.0234 -0.64844,0.0156 -0.66797,-0.0117 -0.0508,-0.082 -0.0156,-0.41406 -0.14453,-0.64453 -7.67188,-13.78906 -18.05078,-17.05859 -33.40625,-16.66016 -15.07813,0.39453 -30.25391,1.77735 -45.19531,4.13672 -4.05079,0.64063 -8.97657,1.28125 -12.875,2.35938 -5.75782,1.58984 -9.59766,7.8164 -12.71094,12.5 l -0.57813,0.13281 -18.1875,-47.12109 z M 140.49219,126.89844 c 2.83593,0 7.80078,-2.7461 9.66015,-4.89844 8.84375,-10.25 4.14063,-32.863281 0.57032,-44.734375 -2.42188,-8.066406 -5.30469,-17.304687 -12.54297,-22.269531 -11.14453,-7.636719 -32.4336,-4.980469 -43.558596,1.824218 C 80.070312,65.714844 79.90625,80.09375 73.886719,94.335938 70.800781,101.63672 60.652344,115.12109 70.664062,121.25 c 7.382813,4.51953 18.5625,1.70313 23.792969,-4.94531 1.839844,-2.33203 3.363281,-5.07422 3.644531,-8.07422 -3.054687,0.57812 -5.851562,0.21875 -8.1875,-1.93359 -6.140624,-5.64844 -1.523437,-15.792974 6.65625,-14.406255 0.890626,0.148437 1.960938,1.054687 2.777344,1.058594 1.500004,0.0039 4.792974,-1.65625 6.179684,-2.4375 5.96094,-3.359375 12.14063,-9.25 14.89063,-15.59375 0.58984,-1.359375 0.92187,-3.289063 1.5,-4.414063 0.9375,-1.820312 1.61328,1.199219 1.80469,1.929688 1.12109,4.238281 1.73437,9.015625 1.20312,13.371094 -0.21484,1.722656 -0.79297,3.402343 -0.91406,5.121093 1.88672,0.121094 3.94531,-0.542969 5.68359,-1.253906 6.33594,-2.597656 10.19922,-8.089844 11.75391,-14.636719 0.12109,-0.519531 0.34375,-2.96875 0.86328,-3 0.43359,-0.02734 0.34766,2 0.57031,2.382813 0.30469,5.851562 0.31641,11.671875 0.44141,17.542969 0.22265,10.667972 2.21484,27.007812 -7.86719,33.996092 -0.48047,0.33594 -0.94141,0.0352 -0.75781,0.94141 z M 1.496094,316.53906 v 6.14844 H 340.98047 c 0.67969,0 0.18359,-2.25391 0.1875,-2.66016 0.0117,-1.14843 0.36719,-2.26953 -0.0742,-3.48828 z m 326.640626,-5.46484 -2.28125,-11.60156 c -6.12891,-0.21485 -12.09766,-1.73438 -18,-3.25782 -3.85938,-0.99609 -7.72266,-2.10156 -11.54297,-3.23828 -6.89453,-2.04687 -13.69922,-4.47656 -20.57422,-6.51172 -0.41016,-0.0625 -0.35937,0.35157 -0.55859,0.58594 -2.54297,2.94922 -8.22266,6.21484 -12.16797,6.23438 -1.30078,0.004 -3.08594,-0.6211 -4.32422,-0.6211 -1.07031,0 -2.16797,1.15235 -2.83203,1.91016 -2.64453,3.02734 -8.1211,11.85156 -11.0586,13.50781 -0.32031,0.17969 -1.3789,0.44922 -1.42187,0.51172 -0.25,0.35547 0.46094,2.39453 0.76953,2.48047 z m -157.19531,-37.1211 c -0.82422,3.38672 0.54687,7.78516 3.75,9.47266 2.99218,1.57422 6.66796,0.23047 7.23437,-3.25 0.76953,-4.71875 -2.23828,-10.73828 -7.74219,-9.57422 -1.32422,0.27735 -2.92968,2.0625 -3.24218,3.35156 z m 0,0"
       fill-opacity="1"
       fill-rule="nonzero"
       id="path10"
       style="display:inline" />
    <path
       fill="#000000"
       d="m 342.46484,316.64844 c -0.0469,-0.42969 -0.13672,-0.82422 -0.45703,-1.14063 l -11.80078,-0.13281 -3.21094,-15.33984 c -0.008,-0.19922 2.22266,-0.10157 2.59375,-0.13672 3.70313,-0.375 7.9961,-1.89844 10.32813,-4.91016 2.13672,-2.76172 2.27734,-5.21094 2.09375,-8.625 -0.22656,-4.26172 -0.89063,-9.11328 -1.39453,-13.39844 -2.07032,-17.58203 -5.07032,-35.91015 -9.58985,-53.0039 -1.46093,-5.53125 -4.0039,-16.4336 -8.46093,-19.98047 -4.03125,-3.20703 -15.89454,-5.48047 -21.20704,-6.53906 -12.6875,-2.52735 -25.57812,-4.03125 -38.2539,-6.57422 l -1.3125,-6.08203 c 5.68359,-7.10938 11.125,-14.60157 14.78515,-23 8.59766,-19.69922 4.60938,-47.26563 -18.73437,-53.71485 -8.52734,-2.35547 -24.72656,-2.21093 -29.95703,6.3125 -0.23828,0.38672 -0.42578,1.38282 -0.8086,1.45703 -6.53125,-1.08203 -13.375,4.02735 -17.48828,8.67579 -9.5664,10.82031 -9.14453,24.74999 1.47657,34.55468 1.91406,9.67188 3.01953,25.625 14.5039,28.67969 1.98047,0.52734 5.71094,0.53906 7.21094,1.65234 1.83203,1.35938 1.69531,5.07032 0.97266,7.01172 -14.33594,5.79297 -29.33594,10.98828 -42.4375,19.30469 -2.45704,1.55859 -7.53125,4.62109 -8.69922,7.22656 -0.9961,2.21875 -0.94141,4.96094 -1.09375,7.32813 -0.25,3.98437 -0.33985,7.84765 0,11.83203 0.10937,1.28125 0.17968,1.38281 -1.13672,1.25781 -0.10938,-6.06641 -0.63281,-12.07812 -0.90625,-18.10156 -2.67578,-22.78906 -4.92188,-47.32422 -11.4336,-69.3711 -3.11328,-10.55078 -6.45703,-14.40625 -16.53125,-18.73046 -4.36328,-1.86719 -8.92968,-3.3711 -13.40625,-4.89844 -0.0625,-0.37109 0.30469,-0.21875 0.5625,-0.22656 18.02735,-0.47657 18.90235,-21.17578 16.91407,-34.695316 C 154.16016,83.660156 149.41406,65.429688 143.10547,58.03125 132.53125,45.632812 108.60938,47.976562 95.59375,55.0625 78.535156,64.351562 79.144531,80.605469 71.929688,96.246094 68.171875,104.38281 59.851562,115.19531 70.363281,122.23438 l 3.1875,1.47265 c -6.832031,1.19922 -14.929687,2.34375 -20.667969,6.50781 -7.574218,5.5 -11.421874,19.52344 -13.820312,28.27735 -3.214844,11.73437 -6.011719,24.5664 -7.765625,36.61328 -2.027344,13.89844 -4.269531,29.08594 10.957031,35.875 9.539063,4.2539 24.824219,4.67969 35.265625,4.97656 2.875,0.082 5.769531,-0.082 8.648438,-0.0117 l 0.535156,0.3711 -11.21875,79.08593 H 64.6875 v -34.71875 c 0,-0.17187 -0.722656,-0.68359 -1.011719,-0.58203 l -27.515625,0.0156 c -1.441406,0.24218 -0.371094,2.3164 -1.019531,2.84765 -0.3125,0.25782 -2.125,0.64844 -2.730469,0.90625 -13.757812,5.8711 -17.113281,22.48438 -3.007812,30.10157 l 3.6875,1.42968 H 0.699219 c -0.289063,0 -0.539063,1.36719 -0.570313,1.70703 -0.1015622,1.08594 -0.128906,5.77344 0.335938,6.4961 0.160156,0.25 0.429687,0.21094 0.675781,0.23047 113.621095,-0.0937 227.273435,0.13281 340.874995,-0.11328 0.2461,-0.17188 0.41016,-1.03125 0.44532,-1.375 0.14062,-1.38282 0.14453,-4.31641 0.004,-5.69922 z m -15.01172,-6.02735 h -83.1914 c -0.0664,-0.0508 -0.48047,-1.45312 -0.36328,-1.60547 0.0742,-0.0898 1.38672,-0.64453 1.80078,-0.9375 0.42187,-0.30468 0.82422,-0.71484 1.17969,-1.09375 3.12109,-3.375 5.82812,-7.67578 8.75,-11.26953 0.8125,-1 1.6914,-2.45312 3.0625,-2.50781 1.36328,-0.0547 3.24609,0.64063 4.51953,0.55859 0.5,-0.0351 1.51172,-0.17968 2.01953,-0.27734 4.20703,-0.79297 7.74609,-3.64844 10.76953,-6.50781 10.72266,3.45703 21.42578,7.08594 32.35547,9.87109 5.58594,1.42578 11.25,2.79688 17.02734,3.09375 z m 10.81641,-16.02343 c -4.95703,5.61328 -17.00781,3.66015 -23.54687,2.2539 -3.98047,-0.85547 -8.16407,-2.04687 -12.09375,-3.14062 -9.03125,-2.51563 -17.875,-5.59375 -26.83594,-8.32422 -1.07422,0.16015 -1.40625,1.1289 -2,1.65234 -2.8125,2.48828 -6.69531,5.02344 -10.5586,5.15235 -1.30859,0.0469 -3.22656,-0.62891 -4.54296,-0.57813 -1.14063,0.0391 -2.00782,0.66406 -2.83985,1.35938 -3.30859,3.96093 -6.22265,8.58984 -9.65625,12.41796 -0.64062,0.71485 -1.92969,2.20704 -2.93359,2.0586 -0.15625,-0.0234 -0.79688,-1.57813 -0.69922,-1.83985 l 11.125,-17.07812 c 0.41797,-0.82422 -0.18359,-1.44531 -1.01953,-1.01953 -0.5,0.2539 -4.01172,5.76953 -4.64063,6.73437 -2.10547,3.21875 -4.09375,6.53125 -6.15234,9.77344 l -1.375,-3.89453 9.09375,-14.55469 c 0.45312,-0.97265 -0.17578,-1.83203 -1.12891,-1.1289 l -8.52734,13.88281 c -0.3125,-0.0234 -0.36719,-0.32422 -0.46094,-0.55469 -0.2539,-0.60937 -1.14453,-2.86328 -1.03125,-3.31641 l 7.53125,-12.73828 c 0.4375,-1.01953 -0.48047,-1.60547 -1.26953,-0.80859 l -6.62109,11.12109 -0.53125,0.60547 -1.66797,-4.63672 c 3.9414,-5.12109 6.57031,-11.0664 13.37109,-12.78125 4.08203,-1.03125 8.90625,-1.71093 13.10156,-2.35937 14.46875,-2.22656 29.26172,-3.56641 43.83985,-3.89844 13.17969,-0.30078 24.83594,1.89063 31.7539,14.1875 2.30469,4.09766 3.80469,7.50391 0.31641,11.45313 z M 225.74609,182.20703 c -7.92968,-2.28125 -10.08593,-11.53906 -11.61328,-18.64844 -1.58984,-7.38281 -3.48047,-18.74609 -0.79297,-25.85156 1.36719,-3.61719 4.16797,-7.73047 7.96094,-8.98828 0.0742,4.07031 1.65234,8.65234 3.59766,12.21875 5.38281,9.875 15.25,13.68359 26.1914,11.35156 2.13282,-0.45312 3.5586,-1.78906 5.55469,-1.94531 3.57031,-0.27734 6.57813,0.25 7.85547,3.97656 1.55859,4.55078 -0.83594,9.41797 -5.17578,11.22656 -1.6211,0.67969 -2.38281,-0.0273 -2.05078,2.38672 0.77343,5.64844 2.8789,11.92969 3.96484,17.65625 0.12891,0.66797 0.42578,1.51953 0.25,2.15625 -0.13672,0.50391 -2.81641,3.89453 -3.36719,4.59766 -2.49218,3.1875 -5.32031,6.49219 -8.17187,9.34375 -0.45313,0.45312 -2.53125,2.37891 -2.94922,2.51172 -1.87109,0.60156 -2.31641,-0.71485 -3.30469,-1.72266 -1.78906,-1.82812 -3.77734,-3.78125 -5.46484,-5.68359 -0.63672,-0.71875 -2.17578,-2.38672 -2.57813,-3.10547 -0.60156,-1.07813 0.12891,-2.65625 0.19922,-3.83984 0.0703,-1.22266 -0.27344,-2.875 -0.79297,-3.98829 -1.58203,-3.3789 -6.24218,-2.76953 -9.3125,-3.65234 z M 182.875,227.625 c 0.082,-2 0.27344,-5.48047 0.85156,-7.33984 0.84375,-2.70704 5.85547,-5.66407 8.26953,-7.19922 13.01953,-8.29297 27.78516,-13.23047 41.92578,-19.23047 0.88672,1.13672 1.76563,2.30859 2.71875,3.39453 1.87891,2.14062 5.07813,5.92969 7.16016,7.625 1.09375,0.89062 1.94141,1.33594 3.42188,0.91406 2.03125,-0.57812 8.77734,-8.45703 10.44531,-10.48047 1.84375,-2.23437 3.47265,-4.65234 5.33594,-6.86718 10.29687,2.08203 20.74609,3.35937 31.08984,5.22265 7.00391,1.26172 14.61328,2.58594 21.36719,4.78125 2.47656,0.80469 5.74218,1.88281 7.44531,3.92578 3.69922,4.44141 6.88281,18.67188 8.30469,24.69141 4.40625,18.69922 6.9414,37.81641 8.97265,56.92187 l -1.72265,-2.9414 c -10.37891,-16.20703 -28.44922,-13.99219 -45.21485,-12.99219 -11.25781,0.66797 -22.44922,1.86328 -33.61328,3.66797 -3.62109,0.58594 -8.03125,1.17578 -11.51953,2.125 -6.01953,1.63281 -9.40234,7.73437 -12.83203,12.41406 l -17.95703,-46.89453 h -34.21094 c -0.19141,-3.87109 -0.39453,-7.83594 -0.23828,-11.73828 z m 33.65234,13.33203 27.96094,74.44531 H 140.83594 L 112.875,240.95703 Z M 98.402344,107.12891 c -2.25,0.0664 -4.011719,0.62109 -6.140625,-0.44922 -7.433594,-3.73828 -4.101563,-15.503909 4.542969,-13.656252 0.664062,0.140624 1.417968,0.878906 2.175781,0.972656 2.292971,0.273437 7.664061,-2.902344 9.648441,-4.25 6.10156,-4.132813 11.73437,-10.285156 13.79687,-17.488282 l 0.52344,1.632813 c 1.19141,5.292969 1.43359,9.695313 0.32031,15.039063 -0.17578,0.84375 -1.16797,2.6875 0.21485,3.09375 1.34375,0.394531 4.67187,-0.621094 6.04687,-1.148438 5.55859,-2.148438 10.22266,-6.980469 11.98828,-12.699219 0.47656,-0.01953 0.42969,-0.101562 0.45313,0.339844 0.0781,1.585937 -0.0586,3.195313 -0.004,4.785156 0.35937,10.105469 2.05859,27.175779 -2.22656,36.242189 -2.74219,5.79687 -9.29688,8.73828 -15.50781,7.24609 -3.02735,-0.73047 -7.53125,-3.83203 -10.46094,-3.20312 -2.9375,0.6289 -2.84766,4.15234 -3.61328,6.39453 -2.17969,6.36328 -11.156254,3.26172 -15.312504,0.74609 -3.03125,-1.83594 -5.652344,-4.85547 -6.976562,-8.15234 4.832031,-1.88672 8.875,-6.46875 10.628906,-11.32813 0.46875,-1.29687 1.421875,-3.16796 -0.09766,-4.11718 z m -31.445313,65.07031 14.09375,37.33984 -21.59375,-6.375 c 1.820313,-10.33594 4.457031,-20.48828 7.027344,-30.64453 0.09375,-0.37109 -0.04297,-0.36328 0.472656,-0.32031 z m 92.402339,-32.79688 c 0.33594,0.008 1.7461,1.47657 2.05079,1.83203 5.41015,6.37891 8.1875,23.35938 9.82031,31.82813 4.21484,21.83984 6.87109,44.09766 7.5664,66.30078 h -24.09765 l -0.0547,-0.96484 -14.46094,-65.40625 c 3.02735,-6.71094 6.69922,-13.22266 10.38282,-19.61328 2.21875,-3.85157 4.55468,-7.97266 6.99218,-11.66797 0.30078,-0.45313 1.3711,-2.3125 1.80078,-2.3086 z M 72.871094,121.77344 C 60.09375,116.72656 71.09375,102.28516 74.34375,94.566406 80.253906,80.515625 80.496094,66.058594 94.847656,57.273438 c 11.851564,-7.253907 34.972654,-9.96875 45.773434,0.289062 6.20313,5.890625 10.38672,21.09375 12.19141,29.449219 2.36328,10.945312 4.86719,32.484371 -7.80469,38.031251 -0.88281,0.38672 -3.6914,1.39844 -4.51562,1.39844 h -4.66016 c 0.64453,-0.80469 1.81641,-1.45313 2.50391,-2.16016 7.19531,-7.37891 5.64453,-23.27344 5.4414,-32.773438 -0.12109,-5.796874 0,-11.792968 -0.4414,-17.542968 -0.0508,-0.664063 -0.19922,-2.398438 -1.02344,-2.398438 -0.98047,-0.0039 -0.96484,1.859375 -1.12891,2.523438 -0.75,3.105468 -1.63672,5.714844 -3.4414,8.390625 -2.9336,4.355469 -8.01953,7.546875 -13.27344,7.988281 -0.13672,-0.132812 0.54688,-2.230469 0.625,-2.671875 0.88672,-5.058594 0.43359,-12.339844 -1.36719,-17.1875 -0.46093,-1.242187 -1.35156,-1.707031 -2.1875,-0.488281 -2.20703,8.773437 -8.92968,15.886718 -16.6914,20.164062 -1.21094,0.664063 -4.42969,2.308594 -5.695316,2.175782 -0.539063,-0.05859 -1.542969,-0.890626 -2.355469,-1.027344 -3.730469,-0.632813 -7.609375,1.039062 -9.265625,4.503906 -2.703125,5.65625 0.734375,11.96484 6.816406,12.97656 l 3.300782,-0.11328 c -0.6875,2.73438 -1.898438,5.08594 -3.640626,7.27735 -4.800781,6.04296 -13.917968,8.54296 -21.136718,5.69531 z m -6.707032,111.89453 c -15.242187,-0.9336 -33.546874,-2.01563 -34.667968,-21.28125 -0.707032,-12.16406 3.582031,-31.06641 6.429687,-43.19531 2.207031,-9.41016 5.53125,-23.47266 10.527344,-31.57813 0.320313,-0.51953 1.503906,-2.52734 2.023437,-2.52344 0.167969,0.004 1.535157,2.4375 1.75,2.8086 2.777344,4.79297 5.292969,10.58984 7.5,15.70703 2.234376,5.17187 4.335938,10.44531 5.980469,15.83984 -2.550781,10.54688 -5.824219,21.35547 -7.546875,32.07813 -0.101562,0.64062 -0.476562,2.07812 -0.183594,2.55859 0.214844,0.36328 4.574219,1.39844 5.398438,1.64844 13.445312,4.05469 26.875,8.20312 40.12109,12.86328 6.0586,0.11719 11.58594,-2.27734 17.61329,-0.57031 8.57421,2.43359 18.73828,12.39062 23.91406,19.53515 0.37109,0.51563 0.88672,1.1836 1.03906,1.80469 h -7.27344 c -0.0312,0 -0.0273,-0.34766 -0.21875,-0.57031 -0.35156,-0.40625 -0.78906,-0.73438 -1.14062,-1.14063 -1.74219,-2.02734 -3.52344,-4.63281 -5.33985,-6.49609 -0.96875,-0.99609 -1.85156,-0.30469 -1.37109,0.92187 1.92969,2.16407 3.82422,4.37891 5.68359,6.60157 0.19141,0.22656 0.4336,0.29297 0.33985,0.68359 h -5.56641 c -0.16406,0 -1.88281,-2.06641 -2.16016,-2.39453 -0.74609,-0.88672 -1.70312,-2.49609 -2.48828,-3.19922 -0.92968,-0.83203 -1.77343,-0.082 -1.20312,0.98047 l 3.6914,4.61328 h -5.11718 c -0.29297,0 -3.36719,-3.94141 -3.78906,-4.51172 -3.45704,-0.17969 1.08984,3.28125 1.63281,4.51172 h -5.57031 c -0.15625,-0.0469 -2.21094,-1.76953 -2.50782,-2.04297 -0.91015,-0.85156 -1.63672,-1.85937 -2.39062,-2.84375 -1.53125,-0.79687 -3.32813,-0.14844 -4.86719,-0.11328 -13.453125,0.33203 -26.859375,0.125 -40.242188,-0.69531 z m -29.210937,81.39062 v -31.53125 l 1.019531,1.3711 c 6.609375,7.67578 17.40625,7.88281 24.101563,0.22656 l 1.019531,-1.36719 v 31.64453 H 36.726562 c -0.05078,-0.17968 0.226563,-0.27734 0.226563,-0.34375 z M 23.273438,294.07422 c 2.304687,-4.92188 6.996093,-8.125 12.089843,-9.63672 v 3.64453 c -12.035156,3.28516 -13.953125,20.92188 0,22.76563 v 3.41406 c -9.773437,-1.3711 -16.574219,-10.59766 -12.089843,-20.1875 z m 12.089843,-4.39844 v 19.57813 c -11.824219,-1.54688 -10.066406,-16.63282 0,-19.57813 z M 340.63672,322.23047 H 1.949219 v -5.23438 H 340.63672 Z M 181.74609,282.95703 c 3.94141,-4.9375 -0.625,-14.45312 -7.32422,-13.48437 -4.60546,0.66406 -5.47265,6.30468 -4.20312,10.01171 1.60937,4.70704 7.82031,8.11719 11.52734,3.47266 z m -7.33203,-11.89844 c 5.62891,-1.01562 9.31641,7.16016 5.97656,11.22266 -2.1914,2.66406 -6,0.92969 -7.73437,-1.37109 -1.98828,-2.64063 -2.26172,-9.125 1.75781,-9.85157 z m 0,0"
       fill-opacity="1"
       fill-rule="nonzero"
       id="path11" />
  </g>
  <g
     id="g13"
     transform="matrix(0.7698344,0,0,0.73691887,63.215266,62.775522)">
    <rect
       style="display:inline;fill:#ffffff;fill-opacity:1;stroke:#000000;stroke-width:1.5;stroke-linecap:round;stroke-linejoin:round;stroke-miterlimit:34.9;stroke-dasharray:none;stroke-opacity:1"
       id="rect12"
       width="162.73082"
       height="94.418457"
       x="-81.36541"
       y="-35.688805"
       rx="15.912505"
       ry="15.579343" />
    <path
       style="fill:#ffffff;fill-opacity:1;stroke:#000000;stroke-width:1.5;stroke-linecap:round;stroke-linejoin:round;stroke-miterlimit:34.9;stroke-dasharray:none;stroke-opacity:1"
       d="m 76.523916,54.360534 9.682988,8.738237"
       id="path12" />
    <path
       style="fill:#d3d3d3;fill-opacity:1;stroke:#d3d3d3;stroke-width:1.99151;stroke-linecap:round;stroke-linejoin:round;stroke-miterlimit:34.9;stroke-dasharray:none;stroke-opacity:1"
       id="path13"
       d="m -41.400154,11.520429 a 9.4915657,10.117877 0 0 1 -9.455857,10.117805 9.4915657,10.117877 0 0 1 -9.527006,-10.041677 9.4915657,10.117877 0 0 1 9.384174,-10.1933609 9.4915657,10.117877 0 0 1 9.597614,9.9649789 l -9.490491,0.152254 z" />
    <path
       style="fill:#d3d3d3;fill-opacity:1;stroke:#d3d3d3;stroke-width:1.99151;stroke-linecap:round;stroke-linejoin:round;stroke-miterlimit:34.9;stroke-dasharray:none;stroke-opacity:1"
       id="path13-3"
       d="m -7.6335354,12.106845 a 9.4915657,10.117877 0 0 1 -9.4558576,10.117805 9.4915657,10.117877 0 0 1 -9.527005,-10.041676 9.4915657,10.117877 0 0 1 9.384174,-10.1933617 9.4915657,10.117877 0 0 1 9.5976139,9.9649797 l -9.4904909,0.152253 z" />
    <path
       style="fill:#d3d3d3;fill-opacity:1;stroke:#d3d3d3;stroke-width:1.99151;stroke-linecap:round;stroke-linejoin:round;stroke-miterlimit:34.9;stroke-dasharray:none;stroke-opacity:1"
       id="path13-6"
       d="M 26.1546,11.520429 A 9.4915657,10.117877 0 0 1 16.698743,21.638234 9.4915657,10.117877 0 0 1 7.1717374,11.596557 9.4915657,10.117877 0 0 1 16.555911,1.4031961 9.4915657,10.117877 0 0 1 26.153525,11.368175 l -9.490491,0.152254 z" />
    <path
       style="fill:#d3d3d3;fill-opacity:1;stroke:#d3d3d3;stroke-width:1.99151;stroke-linecap:round;stroke-linejoin:round;stroke-miterlimit:34.9;stroke-dasharray:none;stroke-opacity:1"
       id="path13-3-6"
       d="M 59.921211,12.106845 A 9.4915657,10.117877 0 0 1 50.465354,22.22465 9.4915657,10.117877 0 0 1 40.938349,12.182974 9.4915657,10.117877 0 0 1 50.322522,1.9896123 9.4915657,10.117877 0 0 1 59.920137,11.954592 l -9.490491,0.152253 z" />
    <path
       style="fill:#000000;fill-opacity:1;stroke:#000000;stroke-width:1.99151;stroke-linecap:round;stroke-linejoin:round;stroke-miterlimit:34.9;stroke-dasharray:none;stroke-opacity:1"
       id="path13-8"
       d="m -37.731716,17.193117 a 9.4915657,10.117877 0 0 1 -9.455857,10.117806 9.4915657,10.117877 0 0 1 -9.527006,-10.041677 9.4915657,10.117877 0 0 1 9.384174,-10.1933615 9.4915657,10.117877 0 0 1 9.597614,9.9649795 l -9.490491,0.152253 z" />
    <path
       style="fill:#000000;fill-opacity:1;stroke:#000000;stroke-width:1.99151;stroke-linecap:round;stroke-linejoin:round;stroke-miterlimit:34.9;stroke-dasharray:none;stroke-opacity:1"
       id="path13-3-7"
       d="M -3.9650946,17.779533 A 9.4915657,10.117877 0 0 1 -13.420952,27.897339 9.4915657,10.117877 0 0 1 -22.947957,17.855662 9.4915657,10.117877 0 0 1 -13.563783,7.6623008 9.4915657,10.117877 0 0 1 -3.9661693,17.62728 L -13.45666,17.779533 Z" />
    <path
       style="fill:#000000;fill-opacity:1;stroke:#000000;stroke-width:1.99151;stroke-linecap:round;stroke-linejoin:round;stroke-miterlimit:34.9;stroke-dasharray:none;stroke-opacity:1"
       id="path13-6-8"
       d="M 29.823036,17.193117 A 9.4915657,10.117877 0 0 1 20.367179,27.310923 9.4915657,10.117877 0 0 1 10.840173,17.269246 9.4915657,10.117877 0 0 1 20.224347,7.0758845 9.4915657,10.117877 0 0 1 29.821961,17.040864 l -9.490491,0.152253 z" />
    <path
       style="fill:#000000;fill-opacity:1;stroke:#000000;stroke-width:1.99151;stroke-linecap:round;stroke-linejoin:round;stroke-miterlimit:34.9;stroke-dasharray:none;stroke-opacity:1"
       id="path13-3-6-7"
       d="M 63.589653,17.779533 A 9.4915657,10.117877 0 0 1 54.133796,27.897339 9.4915657,10.117877 0 0 1 44.60679,17.855662 9.4915657,10.117877 0 0 1 53.990964,7.6623008 9.4915657,10.117877 0 0 1 63.588578,17.62728 l -9.490491,0.152253 z" />
  </g>
  <g
     id="g22"
     transform="matrix(0.7698344,0,0,0.73691887,286.44843,64.603697)">
    <rect
       style="display:inline;fill:#ffffff;fill-opacity:1;stroke:#000000;stroke-width:1.5;stroke-linecap:round;stroke-linejoin:round;stroke-miterlimit:34.9;stroke-dasharray:none;stroke-opacity:1"
       id="rect13"
       width="162.73082"
       height="94.418457"
       x="-86.599525"
       y="-18.06563"
       rx="15.912505"
       ry="15.579343" />
    <path
       style="fill:#ffffff;fill-opacity:1;stroke:#000000;stroke-width:1.99151;stroke-linecap:round;stroke-linejoin:round;stroke-miterlimit:34.9;stroke-dasharray:none;stroke-opacity:1"
       d="M -31.970471,77.226476 -9.6934808,117.89199"
       id="path14" />
    <path
       style="fill:#d3d3d3;fill-opacity:1;stroke:#d3d3d3;stroke-width:1.99151;stroke-linecap:round;stroke-linejoin:round;stroke-miterlimit:34.9;stroke-dasharray:none;stroke-opacity:1"
       id="path15"
       d="m -46.63427,29.143602 a 9.4915657,10.117877 0 0 1 -9.455857,10.117806 9.4915657,10.117877 0 0 1 -9.527005,-10.041677 9.4915657,10.117877 0 0 1 9.384173,-10.193361 9.4915657,10.117877 0 0 1 9.597615,9.964979 l -9.490491,0.152253 z" />
    <path
       style="fill:#d3d3d3;fill-opacity:1;stroke:#d3d3d3;stroke-width:1.99151;stroke-linecap:round;stroke-linejoin:round;stroke-miterlimit:34.9;stroke-dasharray:none;stroke-opacity:1"
       id="path16"
       d="m -12.867653,29.730019 a 9.4915657,10.117877 0 0 1 -9.455857,10.117805 9.4915657,10.117877 0 0 1 -9.527006,-10.041677 9.4915657,10.117877 0 0 1 9.384174,-10.193361 9.4915657,10.117877 0 0 1 9.597614,9.964979 l -9.490491,0.152254 z" />
    <path
       style="fill:#d3d3d3;fill-opacity:1;stroke:#d3d3d3;stroke-width:1.99151;stroke-linecap:round;stroke-linejoin:round;stroke-miterlimit:34.9;stroke-dasharray:none;stroke-opacity:1"
       id="path17"
       d="M 20.920484,29.143602 A 9.4915657,10.117877 0 0 1 11.464626,39.261408 9.4915657,10.117877 0 0 1 1.9376209,29.219731 9.4915657,10.117877 0 0 1 11.321795,19.02637 a 9.4915657,10.117877 0 0 1 9.597614,9.964979 l -9.490491,0.152253 z" />
    <path
       style="fill:#d3d3d3;fill-opacity:1;stroke:#d3d3d3;stroke-width:1.99151;stroke-linecap:round;stroke-linejoin:round;stroke-miterlimit:34.9;stroke-dasharray:none;stroke-opacity:1"
       id="path18"
       d="m 54.687096,29.730019 a 9.4915657,10.117877 0 0 1 -9.455858,10.117805 9.4915657,10.117877 0 0 1 -9.527005,-10.041677 9.4915657,10.117877 0 0 1 9.384174,-10.193361 9.4915657,10.117877 0 0 1 9.597614,9.964979 l -9.490491,0.152254 z" />
    <path
       style="fill:#000000;fill-opacity:1;stroke:#000000;stroke-width:1.99151;stroke-linecap:round;stroke-linejoin:round;stroke-miterlimit:34.9;stroke-dasharray:none;stroke-opacity:1"
       id="path19"
       d="m -42.965832,34.816292 a 9.4915657,10.117877 0 0 1 -9.455857,10.117805 9.4915657,10.117877 0 0 1 -9.527005,-10.041676 9.4915657,10.117877 0 0 1 9.384173,-10.193362 9.4915657,10.117877 0 0 1 9.597615,9.96498 l -9.490491,0.152253 z" />
    <path
       style="fill:#000000;fill-opacity:1;stroke:#000000;stroke-width:1.99151;stroke-linecap:round;stroke-linejoin:round;stroke-miterlimit:34.9;stroke-dasharray:none;stroke-opacity:1"
       id="path20"
       d="m -9.1992111,35.402706 a 9.4915657,10.117877 0 0 1 -9.4558569,10.117806 9.4915657,10.117877 0 0 1 -9.527006,-10.041677 9.4915657,10.117877 0 0 1 9.384174,-10.193361 9.4915657,10.117877 0 0 1 9.5976142,9.964979 l -9.4904912,0.152253 z" />
    <path
       style="fill:#000000;fill-opacity:1;stroke:#000000;stroke-width:1.99151;stroke-linecap:round;stroke-linejoin:round;stroke-miterlimit:34.9;stroke-dasharray:none;stroke-opacity:1"
       id="path21"
       d="M 24.58892,34.816292 A 9.4915657,10.117877 0 0 1 15.133062,44.934097 9.4915657,10.117877 0 0 1 5.6060569,34.892421 9.4915657,10.117877 0 0 1 14.990231,24.699059 a 9.4915657,10.117877 0 0 1 9.597614,9.96498 l -9.490491,0.152253 z" />
    <path
       style="fill:#000000;fill-opacity:1;stroke:#000000;stroke-width:1.99151;stroke-linecap:round;stroke-linejoin:round;stroke-miterlimit:34.9;stroke-dasharray:none;stroke-opacity:1"
       id="path22"
       d="m 58.355537,35.402706 a 9.4915657,10.117877 0 0 1 -9.455857,10.117806 9.4915657,10.117877 0 0 1 -9.527005,-10.041677 9.4915657,10.117877 0 0 1 9.384174,-10.193361 9.4915657,10.117877 0 0 1 9.597614,9.964979 l -9.490491,0.152253 z" />
  </g>
  <g
     id="g31"
     transform="matrix(0.7698344,0,0,0.73691887,458.41335,88.516702)">
    <rect
       style="display:inline;fill:#ffffff;fill-opacity:1;stroke:#000000;stroke-width:1.5;stroke-linecap:round;stroke-linejoin:round;stroke-miterlimit:34.9;stroke-dasharray:none;stroke-opacity:1"
       id="rect22"
       width="162.73082"
       height="94.418457"
       x="-86.599525"
       y="-18.06563"
       rx="15.912505"
       ry="15.579343" />
    <path
       style="fill:#ffffff;fill-opacity:1;stroke:#000000;stroke-width:1.99151;stroke-linecap:round;stroke-linejoin:round;stroke-miterlimit:34.9;stroke-dasharray:none;stroke-opacity:1"
       d="M -31.970471,77.226476 -9.6934808,117.89199"
       id="path23" />
    <path
       style="fill:#d3d3d3;fill-opacity:1;stroke:#d3d3d3;stroke-width:1.99151;stroke-linecap:round;stroke-linejoin:round;stroke-miterlimit:34.9;stroke-dasharray:none;stroke-opacity:1"
       id="path24"
       d="m -46.63427,29.143602 a 9.4915657,10.117877 0 0 1 -9.455857,10.117806 9.4915657,10.117877 0 0 1 -9.527005,-10.041677 9.4915657,10.117877 0 0 1 9.384173,-10.193361 9.4915657,10.117877 0 0 1 9.597615,9.964979 l -9.490491,0.152253 z" />
    <path
       style="fill:#d3d3d3;fill-opacity:1;stroke:#d3d3d3;stroke-width:1.99151;stroke-linecap:round;stroke-linejoin:round;stroke-miterlimit:34.9;stroke-dasharray:none;stroke-opacity:1"
       id="path25"
       d="m -12.867653,29.730019 a 9.4915657,10.117877 0 0 1 -9.455857,10.117805 9.4915657,10.117877 0 0 1 -9.527006,-10.041677 9.4915657,10.117877 0 0 1 9.384174,-10.193361 9.4915657,10.117877 0 0 1 9.597614,9.964979 l -9.490491,0.152254 z" />
    <path
       style="fill:#d3d3d3;fill-opacity:1;stroke:#d3d3d3;stroke-width:1.99151;stroke-linecap:round;stroke-linejoin:round;stroke-miterlimit:34.9;stroke-dasharray:none;stroke-opacity:1"
       id="path26"
       d="M 20.920484,29.143602 A 9.4915657,10.117877 0 0 1 11.464626,39.261408 9.4915657,10.117877 0 0 1 1.9376209,29.219731 9.4915657,10.117877 0 0 1 11.321795,19.02637 a 9.4915657,10.117877 0 0 1 9.597614,9.964979 l -9.490491,0.152253 z" />
    <path
       style="fill:#d3d3d3;fill-opacity:1;stroke:#d3d3d3;stroke-width:1.99151;stroke-linecap:round;stroke-linejoin:round;stroke-miterlimit:34.9;stroke-dasharray:none;stroke-opacity:1"
       id="path27"
       d="m 54.687096,29.730019 a 9.4915657,10.117877 0 0 1 -9.455858,10.117805 9.4915657,10.117877 0 0 1 -9.527005,-10.041677 9.4915657,10.117877 0 0 1 9.384174,-10.193361 9.4915657,10.117877 0 0 1 9.597614,9.964979 l -9.490491,0.152254 z" />
    <path
       style="fill:#000000;fill-opacity:1;stroke:#000000;stroke-width:1.99151;stroke-linecap:round;stroke-linejoin:round;stroke-miterlimit:34.9;stroke-dasharray:none;stroke-opacity:1"
       id="path28"
       d="m -42.965832,34.816292 a 9.4915657,10.117877 0 0 1 -9.455857,10.117805 9.4915657,10.117877 0 0 1 -9.527005,-10.041676 9.4915657,10.117877 0 0 1 9.384173,-10.193362 9.4915657,10.117877 0 0 1 9.597615,9.96498 l -9.490491,0.152253 z" />
    <path
       style="fill:#000000;fill-opacity:1;stroke:#000000;stroke-width:1.99151;stroke-linecap:round;stroke-linejoin:round;stroke-miterlimit:34.9;stroke-dasharray:none;stroke-opacity:1"
       id="path29"
       d="m -9.1992111,35.402706 a 9.4915657,10.117877 0 0 1 -9.4558569,10.117806 9.4915657,10.117877 0 0 1 -9.527006,-10.041677 9.4915657,10.117877 0 0 1 9.384174,-10.193361 9.4915657,10.117877 0 0 1 9.5976142,9.964979 l -9.4904912,0.152253 z" />
    <path
       style="fill:#000000;fill-opacity:1;stroke:#000000;stroke-width:1.99151;stroke-linecap:round;stroke-linejoin:round;stroke-miterlimit:34.9;stroke-dasharray:none;stroke-opacity:1"
       id="path30"
       d="M 24.58892,34.816292 A 9.4915657,10.117877 0 0 1 15.133062,44.934097 9.4915657,10.117877 0 0 1 5.6060569,34.892421 9.4915657,10.117877 0 0 1 14.990231,24.699059 a 9.4915657,10.117877 0 0 1 9.597614,9.96498 l -9.490491,0.152253 z" />
    <path
       style="fill:#000000;fill-opacity:1;stroke:#000000;stroke-width:1.99151;stroke-linecap:round;stroke-linejoin:round;stroke-miterlimit:34.9;stroke-dasharray:none;stroke-opacity:1"
       id="path31"
       d="m 58.355537,35.402706 a 9.4915657,10.117877 0 0 1 -9.455857,10.117806 9.4915657,10.117877 0 0 1 -9.527005,-10.041677 9.4915657,10.117877 0 0 1 9.384174,-10.193361 9.4915657,10.117877 0 0 1 9.597614,9.964979 l -9.490491,0.152253 z" />
  </g>
  <g
     id="g40"
     transform="matrix(0.7698344,0,0,0.73691887,713.26141,13.865589)">
    <rect
       style="display:inline;fill:#ffffff;fill-opacity:1;stroke:#000000;stroke-width:1.5;stroke-linecap:round;stroke-linejoin:round;stroke-miterlimit:34.9;stroke-dasharray:none;stroke-opacity:1"
       id="rect31"
       width="162.73082"
       height="94.418457"
       x="-86.599525"
       y="-18.06563"
       rx="15.912505"
       ry="15.579343" />
    <path
       style="fill:#ffffff;fill-opacity:1;stroke:#000000;stroke-width:1.99151;stroke-linecap:round;stroke-linejoin:round;stroke-miterlimit:34.9;stroke-dasharray:none;stroke-opacity:1"
       d="m -98.986725,85.54448 23.274399,-9.450317"
       id="path32" />
    <path
       style="fill:#d3d3d3;fill-opacity:1;stroke:#d3d3d3;stroke-width:1.99151;stroke-linecap:round;stroke-linejoin:round;stroke-miterlimit:34.9;stroke-dasharray:none;stroke-opacity:1"
       id="path33"
       d="m -46.63427,29.143602 a 9.4915657,10.117877 0 0 1 -9.455857,10.117806 9.4915657,10.117877 0 0 1 -9.527005,-10.041677 9.4915657,10.117877 0 0 1 9.384173,-10.193361 9.4915657,10.117877 0 0 1 9.597615,9.964979 l -9.490491,0.152253 z" />
    <path
       style="fill:#d3d3d3;fill-opacity:1;stroke:#d3d3d3;stroke-width:1.99151;stroke-linecap:round;stroke-linejoin:round;stroke-miterlimit:34.9;stroke-dasharray:none;stroke-opacity:1"
       id="path34"
       d="m -12.867653,29.730019 a 9.4915657,10.117877 0 0 1 -9.455857,10.117805 9.4915657,10.117877 0 0 1 -9.527006,-10.041677 9.4915657,10.117877 0 0 1 9.384174,-10.193361 9.4915657,10.117877 0 0 1 9.597614,9.964979 l -9.490491,0.152254 z" />
    <path
       style="fill:#d3d3d3;fill-opacity:1;stroke:#d3d3d3;stroke-width:1.99151;stroke-linecap:round;stroke-linejoin:round;stroke-miterlimit:34.9;stroke-dasharray:none;stroke-opacity:1"
       id="path35"
       d="M 20.920484,29.143602 A 9.4915657,10.117877 0 0 1 11.464626,39.261408 9.4915657,10.117877 0 0 1 1.9376209,29.219731 9.4915657,10.117877 0 0 1 11.321795,19.02637 a 9.4915657,10.117877 0 0 1 9.597614,9.964979 l -9.490491,0.152253 z" />
    <path
       style="fill:#d3d3d3;fill-opacity:1;stroke:#d3d3d3;stroke-width:1.99151;stroke-linecap:round;stroke-linejoin:round;stroke-miterlimit:34.9;stroke-dasharray:none;stroke-opacity:1"
       id="path36"
       d="m 54.687096,29.730019 a 9.4915657,10.117877 0 0 1 -9.455858,10.117805 9.4915657,10.117877 0 0 1 -9.527005,-10.041677 9.4915657,10.117877 0 0 1 9.384174,-10.193361 9.4915657,10.117877 0 0 1 9.597614,9.964979 l -9.490491,0.152254 z" />
    <path
       style="fill:#000000;fill-opacity:1;stroke:#000000;stroke-width:1.99151;stroke-linecap:round;stroke-linejoin:round;stroke-miterlimit:34.9;stroke-dasharray:none;stroke-opacity:1"
       id="path37"
       d="m -42.965832,34.816292 a 9.4915657,10.117877 0 0 1 -9.455857,10.117805 9.4915657,10.117877 0 0 1 -9.527005,-10.041676 9.4915657,10.117877 0 0 1 9.384173,-10.193362 9.4915657,10.117877 0 0 1 9.597615,9.96498 l -9.490491,0.152253 z" />
    <path
       style="fill:#000000;fill-opacity:1;stroke:#000000;stroke-width:1.99151;stroke-linecap:round;stroke-linejoin:round;stroke-miterlimit:34.9;stroke-dasharray:none;stroke-opacity:1"
       id="path38"
       d="m -9.1992111,35.402706 a 9.4915657,10.117877 0 0 1 -9.4558569,10.117806 9.4915657,10.117877 0 0 1 -9.527006,-10.041677 9.4915657,10.117877 0 0 1 9.384174,-10.193361 9.4915657,10.117877 0 0 1 9.5976142,9.964979 l -9.4904912,0.152253 z" />
    <path
       style="fill:#000000;fill-opacity:1;stroke:#000000;stroke-width:1.99151;stroke-linecap:round;stroke-linejoin:round;stroke-miterlimit:34.9;stroke-dasharray:none;stroke-opacity:1"
       id="path39"
       d="M 24.58892,34.816292 A 9.4915657,10.117877 0 0 1 15.133062,44.934097 9.4915657,10.117877 0 0 1 5.6060569,34.892421 9.4915657,10.117877 0 0 1 14.990231,24.699059 a 9.4915657,10.117877 0 0 1 9.597614,9.96498 l -9.490491,0.152253 z" />
    <path
       style="fill:#000000;fill-opacity:1;stroke:#000000;stroke-width:1.99151;stroke-linecap:round;stroke-linejoin:round;stroke-miterlimit:34.9;stroke-dasharray:none;stroke-opacity:1"
       id="path40"
       d="m 58.355537,35.402706 a 9.4915657,10.117877 0 0 1 -9.455857,10.117806 9.4915657,10.117877 0 0 1 -9.527005,-10.041677 9.4915657,10.117877 0 0 1 9.384174,-10.193361 9.4915657,10.117877 0 0 1 9.597614,9.964979 l -9.490491,0.152253 z" />
  </g>
  <g
     id="g49"
     transform="matrix(0.7698344,0,0,0.73691887,823.72437,119.73879)">
    <rect
       style="display:inline;fill:#ffffff;fill-opacity:1;stroke:#000000;stroke-width:1.5;stroke-linecap:round;stroke-linejoin:round;stroke-miterlimit:34.9;stroke-dasharray:none;stroke-opacity:1"
       id="rect40"
       width="162.73082"
       height="94.418457"
       x="-86.599525"
       y="-18.06563"
       rx="15.912505"
       ry="15.579343" />
    <path
       style="fill:#ffffff;fill-opacity:1;stroke:#000000;stroke-width:1.99151;stroke-linecap:round;stroke-linejoin:round;stroke-miterlimit:34.9;stroke-dasharray:none;stroke-opacity:1"
       d="m -98.986725,85.54448 23.274399,-9.450317"
       id="path41" />
    <path
       style="fill:#d3d3d3;fill-opacity:1;stroke:#d3d3d3;stroke-width:1.99151;stroke-linecap:round;stroke-linejoin:round;stroke-miterlimit:34.9;stroke-dasharray:none;stroke-opacity:1"
       id="path42"
       d="m -46.63427,29.143602 a 9.4915657,10.117877 0 0 1 -9.455857,10.117806 9.4915657,10.117877 0 0 1 -9.527005,-10.041677 9.4915657,10.117877 0 0 1 9.384173,-10.193361 9.4915657,10.117877 0 0 1 9.597615,9.964979 l -9.490491,0.152253 z" />
    <path
       style="fill:#d3d3d3;fill-opacity:1;stroke:#d3d3d3;stroke-width:1.99151;stroke-linecap:round;stroke-linejoin:round;stroke-miterlimit:34.9;stroke-dasharray:none;stroke-opacity:1"
       id="path43"
       d="m -12.867653,29.730019 a 9.4915657,10.117877 0 0 1 -9.455857,10.117805 9.4915657,10.117877 0 0 1 -9.527006,-10.041677 9.4915657,10.117877 0 0 1 9.384174,-10.193361 9.4915657,10.117877 0 0 1 9.597614,9.964979 l -9.490491,0.152254 z" />
    <path
       style="fill:#d3d3d3;fill-opacity:1;stroke:#d3d3d3;stroke-width:1.99151;stroke-linecap:round;stroke-linejoin:round;stroke-miterlimit:34.9;stroke-dasharray:none;stroke-opacity:1"
       id="path44"
       d="M 20.920484,29.143602 A 9.4915657,10.117877 0 0 1 11.464626,39.261408 9.4915657,10.117877 0 0 1 1.9376209,29.219731 9.4915657,10.117877 0 0 1 11.321795,19.02637 a 9.4915657,10.117877 0 0 1 9.597614,9.964979 l -9.490491,0.152253 z" />
    <path
       style="fill:#d3d3d3;fill-opacity:1;stroke:#d3d3d3;stroke-width:1.99151;stroke-linecap:round;stroke-linejoin:round;stroke-miterlimit:34.9;stroke-dasharray:none;stroke-opacity:1"
       id="path45"
       d="m 54.687096,29.730019 a 9.4915657,10.117877 0 0 1 -9.455858,10.117805 9.4915657,10.117877 0 0 1 -9.527005,-10.041677 9.4915657,10.117877 0 0 1 9.384174,-10.193361 9.4915657,10.117877 0 0 1 9.597614,9.964979 l -9.490491,0.152254 z" />
    <path
       style="fill:#000000;fill-opacity:1;stroke:#000000;stroke-width:1.99151;stroke-linecap:round;stroke-linejoin:round;stroke-miterlimit:34.9;stroke-dasharray:none;stroke-opacity:1"
       id="path46"
       d="m -42.965832,34.816292 a 9.4915657,10.117877 0 0 1 -9.455857,10.117805 9.4915657,10.117877 0 0 1 -9.527005,-10.041676 9.4915657,10.117877 0 0 1 9.384173,-10.193362 9.4915657,10.117877 0 0 1 9.597615,9.96498 l -9.490491,0.152253 z" />
    <path
       style="fill:#000000;fill-opacity:1;stroke:#000000;stroke-width:1.99151;stroke-linecap:round;stroke-linejoin:round;stroke-miterlimit:34.9;stroke-dasharray:none;stroke-opacity:1"
       id="path47"
       d="m -9.1992111,35.402706 a 9.4915657,10.117877 0 0 1 -9.4558569,10.117806 9.4915657,10.117877 0 0 1 -9.527006,-10.041677 9.4915657,10.117877 0 0 1 9.384174,-10.193361 9.4915657,10.117877 0 0 1 9.5976142,9.964979 l -9.4904912,0.152253 z" />
    <path
       style="fill:#000000;fill-opacity:1;stroke:#000000;stroke-width:1.99151;stroke-linecap:round;stroke-linejoin:round;stroke-miterlimit:34.9;stroke-dasharray:none;stroke-opacity:1"
       id="path48"
       d="M 24.58892,34.816292 A 9.4915657,10.117877 0 0 1 15.133062,44.934097 9.4915657,10.117877 0 0 1 5.6060569,34.892421 9.4915657,10.117877 0 0 1 14.990231,24.699059 a 9.4915657,10.117877 0 0 1 9.597614,9.96498 l -9.490491,0.152253 z" />
    <path
       style="fill:#000000;fill-opacity:1;stroke:#000000;stroke-width:1.99151;stroke-linecap:round;stroke-linejoin:round;stroke-miterlimit:34.9;stroke-dasharray:none;stroke-opacity:1"
       id="path49"
       d="m 58.355537,35.402706 a 9.4915657,10.117877 0 0 1 -9.455857,10.117806 9.4915657,10.117877 0 0 1 -9.527005,-10.041677 9.4915657,10.117877 0 0 1 9.384174,-10.193361 9.4915657,10.117877 0 0 1 9.597614,9.964979 l -9.490491,0.152253 z" />
  </g>
</svg>
