<?xml version="1.0" encoding="UTF-8" standalone="no"?>
<svg
   width="1001"
   zoomAndPan="magnify"
   viewBox="0 0 750.75 323.999988"
   height="432"
   preserveAspectRatio="xMidYMid meet"
   version="1.0"
   id="svg11"
   sodipodi:docname="heroes1 copy.svg"
   inkscape:export-filename="heroes1 copy.svg"
   inkscape:export-xdpi="96"
   inkscape:export-ydpi="96"
   inkscape:version="1.3.2 (091e20e, 2023-11-25)"
   xmlns:inkscape="http://www.inkscape.org/namespaces/inkscape"
   xmlns:sodipodi="http://sodipodi.sourceforge.net/DTD/sodipodi-0.dtd"
   xmlns="http://www.w3.org/2000/svg"
   xmlns:svg="http://www.w3.org/2000/svg">
  <sodipodi:namedview
     id="namedview11"
     pagecolor="#ffffff"
     bordercolor="#000000"
     borderopacity="0.25"
     inkscape:showpageshadow="2"
     inkscape:pageopacity="0.0"
     inkscape:pagecheckerboard="0"
     inkscape:deskcolor="#d1d1d1"
     inkscape:zoom="0.71415176"
     inkscape:cx="468.38784"
     inkscape:cy="196.03676"
     inkscape:window-width="1512"
     inkscape:window-height="945"
     inkscape:window-x="0"
     inkscape:window-y="37"
     inkscape:window-maximized="0"
     inkscape:current-layer="g8" />
  <defs
     id="defs4">
    <clipPath
       id="c054de0911">
      <path
         d="M 0 0.0546875 L 750.5 0.0546875 L 750.5 323.945312 L 0 323.945312 Z M 0 0.0546875 "
         clip-rule="nonzero"
         id="path1" />
    </clipPath>
    <clipPath
       id="4c5e896ede">
      <path
         d="M 346 1 L 750 1 L 750 323.945312 L 346 323.945312 Z M 346 1 "
         clip-rule="nonzero"
         id="path2" />
    </clipPath>
    <clipPath
       id="84fbf42c8e">
      <path
         d="M 345 0.0546875 L 750.5 0.0546875 L 750.5 323.945312 L 345 323.945312 Z M 345 0.0546875 "
         clip-rule="nonzero"
         id="path3" />
    </clipPath>
    <clipPath
       id="309f08ec04">
      <path
         d="M 0 49 L 342.636719 49 L 342.636719 323.945312 L 0 323.945312 Z M 0 49 "
         clip-rule="nonzero"
         id="path4" />
    </clipPath>
  </defs>
  <g
     clip-path="url(#c054de0911)"
     id="g5">
    <path
       fill="#ffffff"
       d="M 750.5,323.94531 H 0 Z"
       fill-opacity="1"
       fill-rule="nonzero"
       id="path5"
       sodipodi:nodetypes="ccc" />
  </g>
  <g
     clip-path="url(#4c5e896ede)"
     id="g6">
    <path
       fill="#ffffff"
       d="m 741.86328,191.03906 c 4.65234,5.85156 4.59375,18.86328 4.63672,26.13281 0.17187,28.33594 -2.94531,56.64844 -4.73828,84.89454 -0.33594,5.32812 -0.57813,10.71484 -0.97656,16.05078 -0.14063,1.86328 0.0898,3.48828 -0.9961,5.21093 -0.48047,-0.35546 -0.91406,-0.008 -1.3125,-0.0234 -6.76562,-0.25391 -13.46094,0.0195 -20.20312,0.008 -91.11719,-0.16406 -182.36719,-0.23047 -273.60157,-0.0469 -20.28515,-0.28906 -40.54687,0.0234 -60.80078,0.0469 -9.82422,0.0117 -19.61328,0.0273 -29.44922,0.0547 -6.57031,0.0195 -8.53125,-5.42188 -8.15625,-11.08985 0.50782,-7.625 2.78516,-17.29297 4.21094,-24.98047 2.0625,-11.10937 4.23047,-22.26953 6.57422,-33.32421 2.41797,-11.39844 6.74219,-32.79688 15.5,-40.69922 3.35938,-3.03125 8.82422,-5.58594 12.98047,-7.45703 10.56641,-4.76954 21.63281,-8.47266 32.30078,-12.9961 l -0.0547,-0.78515 c -0.73437,-0.0703 -1.76172,-1.49219 -2.26172,-1.50391 -0.3164,-0.004 -3.69921,1.99609 -4.51171,2.3125 -1.69532,0.66016 -3.32813,1.14453 -5.10157,0.48437 -3.07031,-1.13671 -2.40234,-4.49218 -1.26953,-6.85546 0.34766,-0.72657 1.82422,-2.51954 1.76953,-3.10938 -0.0547,-0.58203 -1.1289,-0.94531 -1.59765,-1.34375 -1.375,-1.17578 -1.83203,-2.12891 -1.21485,-3.88672 0.29688,-0.84765 1.55078,-2.0664 0.23047,-2.42578 -4.21484,-1.15234 -6.97265,-1.55469 -9.97656,-5.11328 -5.51953,-6.53906 -2.48828,-15.375 4.18359,-19.66797 0.33203,-0.21484 1.78125,-0.77344 1.80078,-0.91016 0.15235,-1.00781 -1.02343,-1.57812 -1.57812,-2.3125 -4.08594,-5.39843 -5.42188,-12.58984 -1.88672,-18.6289 3.70313,-6.33203 12.73047,-10.65234 20,-10.05469 0.13672,-2.64844 -0.0195,-5.3125 2.30859,-7.05469 1.84766,-1.3789 4.6211,-1.07031 6.53516,0.043 0.52344,0.30469 2.64453,2.48828 3.07031,1.89453 0.043,-0.0625 0.0312,-0.47265 0.13282,-0.70703 1.47265,-3.4375 3.05468,-6 6.76562,-7.35937 4.70703,-1.72266 11.58594,0 15.26953,3.32031 0.42969,0.38672 0.48828,1.03516 1.08985,1.12109 0.80078,0.11719 2.16796,-1.19921 2.96484,-1.66796 1.45703,-0.85938 3.39453,-1.78126 5.08594,-1.97266 8.03515,-0.91797 17.32812,8.15234 16.64843,16.27344 4.41016,0.0859 8.33594,2.625 9.38282,7.04296 0.78125,3.28516 -0.5586,7.19141 -2.6875,9.7461 -0.46485,0.5625 -2.95313,2.64062 -3.01172,2.83984 -0.21875,0.73438 0.58203,2.67578 0.67187,3.62891 0.37891,3.99219 -2.42187,7.97265 -6.48828,8.54687 -0.60547,0.0859 -1.93359,-0.0547 -2.26562,0.16797 -0.32422,0.22266 -0.19922,1.11328 -0.33985,1.60547 -0.24218,0.875 -1.39453,2.00391 -2.1914,2.43359 -1.21485,0.65625 -1.90235,0.0977 -1.84766,1.82422 0.125,4.03125 0.65234,8.0625 -0.29687,12.08594 -0.80079,3.39453 -3.41016,5.75781 -6.74219,6.64063 -3.25391,0.85937 -8.24219,0.47656 -9.48438,4.38281 l -0.26562,7.01172 c 3.95312,1.44922 8.1289,2.26172 12.17969,3.4375 7.05859,2.04687 16.89843,4.94531 23.28515,8.34765 6.41016,3.41797 10.01953,12.95703 13.42188,19.1836 2.38281,4.36328 5.21484,8.87109 7.38672,13.29297 0.33984,0.6875 0.77343,1.28906 0.69531,2.10156 l 10.91797,-0.0195 15.11718,-53.48438 c -0.34375,-0.0391 -0.65625,0.004 -0.98437,0.10938 -1.76953,0.57031 -3.72656,1.60156 -5.52344,2.26172 -9.24609,3.39062 -31.85547,11.26953 -34.80469,-3.53125 -1.60156,-8.03125 3.64454,-23.80469 6.14063,-31.92579 3.25,-10.55468 6.89844,-21.39453 10.89062,-31.68359 2.39063,-6.15234 4.40235,-13.40625 10.33204,-16.91797 6.48046,-3.835935 14.42187,-5.94531 21.17187,-9.246091 0.60156,-0.292969 1.70703,-0.667969 1.79297,-1.390625 0.0508,-0.441406 -0.30469,-1.976563 -0.52734,-2.394532 -1.17579,-2.167968 -6.26954,-2.222656 -8.53907,-2.652343 -17.38281,-3.308594 -15.66406,-17.953125 -16.2539,-32.164063 -0.23828,-5.789062 -1.48047,-13.296875 0.76172,-18.691406 4.67578,-11.242188 19.84375,-19.167969 31.70312,-17.644531 6.875,0.882812 14.96484,5.78125 19.23047,11.183593 0.20312,0.253907 0.61328,1.113282 0.67187,1.152344 0.9961,0.664063 1.13672,-0.859375 1.45313,-1.503906 2.88281,-5.828125 9.85547,-8.578125 15.78906,-5.390625 8.83203,4.75 6.72266,18.265625 6.32422,26.523437 -1.41797,12.425782 -2.72266,24.898438 -4.14062,37.335938 1.97656,0.203125 3.94921,0.632812 5.89062,1.042969 4.30078,0.914062 12.26953,2.175781 15.16797,5.519531 4.11328,4.746094 7.41406,18.84375 9.05469,25.24609 2.57031,10.03516 4.92187,20.46875 6.8125,30.65625 2.61328,14.09375 5.89062,27.25782 -10.33203,33.80469 -1.65625,0.66797 -3.64844,1.26953 -5.41797,1.51563 -0.23438,0.16015 1.16797,3.78125 1.33984,4.375 1.4375,4.98046 2.75391,11.07812 3.50391,16.20703 0.0391,0.28125 -0.0117,1.01953 0.0234,1.0664 0.0312,0.0391 0.82813,0.043 0.94141,-0.0352 0.11328,-0.082 0.97656,-2.13672 1.20703,-2.5625 2.14063,-3.9961 5.26172,-10.25391 7.97266,-13.67969 1.28906,-1.63281 3.05859,-1.98047 4.96875,-2.57422 4.01172,-1.25391 8.14453,-2.19141 12.17187,-3.40625 8.06641,-2.42969 16.02735,-5.21875 23.86328,-8.28906 -0.0156,-2.73828 -1.26562,-3.92188 -3.84765,-4.42188 -2.85156,-0.55468 -5.76563,-0.0703 -8.63281,-0.61328 -13.25,-2.5039 -10.9375,-17.94922 -12.11719,-28.02344 -0.0312,-6.29687 -0.72656,-12.53515 -0.73047,-18.85546 -4.67188,-0.14453 -8.22656,-4.07032 -6.94141,-8.76563 2.0586,-7.53515 12.82813,-13.40625 19.71485,-15.808592 16.1289,-5.625 44.87109,-5.125 52.74218,13.218752 3.58985,8.36719 3.49219,20.54297 2.63672,29.48047 -0.84375,8.83984 -4.0625,18.70312 -12.90625,22.37109 -1.99609,0.82812 -4.1875,1.45312 -6.32422,0.85547 l 0.24219,5.83594 c 0.42188,-0.0273 0.81641,0.0117 1.23047,0.10937 3.01563,0.73828 6.48438,2.17578 9.53516,3.12109 7.64453,2.3711 15.40234,4.44922 23.00781,6.92188 6.03516,1.96484 13.85937,4.46094 17.92578,9.57031 z"
       fill-opacity="1"
       fill-rule="nonzero"
       id="path6"
       sodipodi:nodetypes="cccccccccccccsccccscccccccccccccccccccccccccccccccsccccccccccccccccccccccccscccccccccccccccccccccccccccccccccccc" />
  </g>
  <path
     fill="#d3d3d3"
     d="m 564.56641,79.238281 c -0.25,0.246094 -0.45313,0.777344 -0.51172,0.820313 -0.75782,0.527344 -3.20313,-1.167969 -3.77735,-1.738282 -2.6289,-2.621093 -1.73828,-6.070312 -1.53515,-9.40625 7.41797,-0.296874 12.82812,-7.449218 9.29297,-14.523437 -0.94532,-1.890625 -3.35938,-4.386719 -5.53907,-4.675781 -1.85937,-0.25 -4.34765,0.453125 -5.58984,1.917968 -0.91797,1.085938 -0.21875,1.613282 -2.25781,1.054688 -9.47657,-2.585938 -19.56641,-18.949219 -21.58985,-28.042969 -0.16406,-0.730469 -0.60547,-2.332031 -0.24609,-2.929687 0.23047,-0.382813 4.30469,-1.785156 5.05469,-2.003906 15.55078,-4.59375 30.71484,3.792968 35.59765,19.035156 3.80469,11.875 3.28907,27.335937 -5.23828,37.09375 -1.13281,1.296875 -2.5,2.25 -3.66015,3.398437 z M 579.8125,22.714844 c -3.92188,0.449218 -8.42188,4.441406 -8.85547,8.441406 -0.11719,1.046875 0.98828,2.273438 1.45703,3.292969 3.09375,6.71875 4.6875,16.042969 3.82422,23.371093 -0.99609,8.460938 -4.69141,16.777344 -11.53516,22.039063 -0.49218,1.003906 0.14063,2.324219 1.02735,2.863281 7.6914,1.164063 15.30078,2.78125 22.94531,4.1875 l 0.72656,-8.394531 c 0.98828,-10.207031 2.6836,-20.410156 3.41407,-30.644531 0.69921,-9.835938 1.71093,-26.828125 -13.00391,-25.15625 z M 421.23047,237.96875 h 130.9375 v 84.28516 c 0,0.0234 -0.33985,0.36328 -0.36328,0.36328 H 421.23047 Z m 72.03515,45.60547 c 4.58204,-5.76563 -0.72265,-14.32031 -7.60546,-13.19922 -2.97266,0.48437 -5.97657,3.19922 -6.82422,6.07031 -2.38282,8.0586 8.60547,14.45703 14.42968,7.12891 z M 521.37891,38.503906 c 4.60937,-3.886718 8.95703,-9.824218 10.10156,-15.808594 -0.44531,-0.460937 -4.41406,2.476563 -4.98438,2.921876 -4.36718,3.445312 -8.79687,9.335937 -8.88672,15.078124 0.37891,0.386719 3.28907,-1.789062 3.76954,-2.191406 z M 721.99219,181.46875 c -6.17578,-1.98438 -12.45703,-3.72656 -18.6836,-5.53125 0.0234,0.33594 0.0156,0.65234 -0.1289,0.96875 -0.45703,0.98828 -2.0625,2.92187 -2.7461,4.06641 -8.42578,14.03906 -14.3789,28.41015 -18.47656,44.29296 -0.85547,3.32032 -1.38281,7.09375 -2.375,10.27735 -0.19531,0.62109 -0.65234,1.03906 -0.61328,1.69531 h 15.45703 c 0.0625,0 0.60547,0.76563 0.60547,0.85156 v 84.52735 h 44.53906 c 0.78906,-2.82813 0.5625,-5.75782 0.72656,-8.63672 1.6211,-28.25 4.55079,-56.3711 5.3711,-84.63672 0.26953,-9.34375 0.74609,-21.03125 -1.05469,-30.10547 -2.42969,-12.26953 -12.12109,-14.39453 -22.62109,-17.76953 z m -94.67969,89.64453 c -6.78906,0.96484 -8.17969,10.90234 -2.35938,14.15234 4.16016,2.32032 10.7461,0.16016 11.40625,-4.86718 0.77344,-5.88672 -3.04296,-10.14063 -9.04687,-9.28516 z m 30.60937,-91.27344 c -9.60546,3.46094 -19.28906,5.70313 -28.84765,8.8711 -0.98047,0.32422 -1.94922,0.65625 -2.85156,1.16015 -7.9961,12.57032 -14.45704,26.07422 -20.55469,39.66016 -0.875,1.95312 -2.40625,4.82812 -3.00781,6.72656 -0.10547,0.32813 -0.15235,0.63672 -0.11329,0.98047 h 41.86329 c 0.0273,-5.70703 1.63671,-11.58203 3.28515,-17.02734 4.32422,-14.30469 10.92578,-28.23438 17.04688,-41.82813 l 0.10937,-0.98047 c -0.34375,-0.0586 -0.64844,0.0234 -0.97656,0.11328 -1.79297,0.48438 -4.10547,1.65625 -5.95313,2.32422 z"
     fill-opacity="1"
     fill-rule="nonzero"
     id="path7"
     sodipodi:nodetypes="ccccccccccccccccccccccccccssccccccccccccccccccsscccccccccccccccccccccc" />
  <g
     clip-path="url(#84fbf42c8e)"
     id="g8"
     transform="translate(1.457031,-8e-5)">
    <path
       fill="#000000"
       d="m 591.64844,69.734375 c -0.4375,3.660156 -0.875,7.316406 -1.27344,10.972656 -0.21484,1.980469 -0.16406,4.03125 -0.72656,5.960938 4.96484,1.0625 10.51172,1.722656 15.32812,3.289062 7.67578,2.496094 9.39453,9.875 11.56641,16.898439 3.13672,10.14062 5.6289,21.16797 7.84375,31.57031 1.78125,8.37109 5.41015,22.92578 4.17578,31.04297 -1.44531,9.52344 -8.79688,13.86719 -17.49219,15.96094 0.67578,2.5 1.5,4.96484 2.1211,7.48047 1.04687,4.25781 1.83203,8.62109 2.5,12.94921 l 6.86328,-12.23437 c 1.87109,-2.80859 2.17968,-4.64844 5.59765,-5.83594 5.31641,-1.84765 11.2461,-3.04297 16.6875,-4.73047 7.08594,-2.1914 14.03125,-4.8164 20.98047,-7.37109 -0.10937,-2.19531 -1.74609,-3.31641 -3.78906,-3.61719 -2.85547,-0.42187 -5.82813,-0.0234 -8.67578,-0.57031 -12.35156,-2.37891 -11.30469,-16.67578 -11.86328,-26.33203 -0.21485,-3.71094 -0.54688,-7.46875 -0.73438,-11.1836 -0.15625,-3.05859 -0.0234,-6.1914 -0.48047,-9.20312 -1.67578,-0.57812 -3.52343,-0.96094 -4.85156,-2.25391 -5.26172,-5.11718 -0.0352,-12.22265 4.24219,-15.91015 13.55469,-11.691409 41.20312,-14.300784 56.74609,-5.64063 10.34766,5.76563 12.75,14.79297 13.46094,25.95313 0.67187,10.49609 0.37891,27.54687 -8.26563,35.02734 -2.93359,2.53906 -7.25781,4.61719 -11.20312,4.25391 l 0.25,4.61328 c 3.34766,0.66406 6.53516,1.97656 9.78516,2.99219 10.53125,3.29687 23.34375,6.08593 33.21093,10.59375 13.17188,6.01171 12.8086,15.70703 13.20703,28.63671 0.79688,25.75391 -1.98828,52.16016 -3.88281,77.82422 -0.68359,9.24219 -0.98437,18.51563 -1.70312,27.73047 -0.14844,1.86328 0.0195,3.45313 -1.00782,5.19922 l -386.58593,0.043 c -10.83594,-1.14844 -7.82422,-13.03125 -6.60938,-20.49219 2.56641,-15.73437 5.75,-31.82422 9,-47.4375 2.39453,-11.5 5.16406,-25.22265 10.59766,-35.625 4.96094,-9.5 13.28906,-12.76172 22.68359,-16.73437 8.85547,-3.75 17.92969,-7.03125 26.84766,-10.63282 0.28515,-0.11718 0.85547,-0.17578 0.89453,-0.19921 0.48047,-0.30079 -0.21875,-0.46485 -0.3125,-0.54688 -0.28125,-0.24219 -0.71094,-0.44141 -0.97656,-0.67187 -0.21094,-0.1836 -0.14453,-0.52735 -0.29297,-0.48047 -0.60156,0.17968 -2.06641,1.36328 -2.875,1.74609 -2.33594,1.10547 -5.42578,2.17188 -7.79688,0.64453 -3.45312,-2.21875 -1.0625,-7.41406 1.05469,-9.8125 -1.25,-1.07812 -2.66406,-1.72656 -3.05469,-3.51172 -0.32812,-1.51953 0.48828,-2.51953 0.86719,-3.90625 -3.63672,-0.50781 -7.51562,-1.93359 -9.97656,-4.74609 -6.66016,-7.62891 -2.625,-17.38281 5.34765,-21.89063 -1.64843,-1.83203 -3.09765,-3.89843 -4.00781,-6.20312 -4.78515,-12.10547 4.15625,-22.04687 15.64453,-24.49219 1.6836,-0.35937 3.48438,-0.74609 5.16016,-0.32031 -0.0391,-3.08203 0.32812,-6.50391 3.65625,-7.65625 3.13281,-1.08594 6.13672,0.28125 8.26953,2.55078 2.92578,-11.21094 17.0625,-10.875 23.96875,-3.69922 1.58203,-1.04297 3.05469,-2.21484 4.86328,-2.8789 6.40235,-2.34375 13.15235,1.2539 17.02735,6.35547 1.94531,2.5625 3.21875,5.97656 3.0664,9.21484 7.88281,0.51562 11.64063,7.33203 8.5586,14.52734 -0.96875,2.25781 -2.79297,4.59766 -4.9336,5.82031 2.48828,6.23829 -1.03515,12.73829 -8.02734,12.60157 -0.3086,0.21484 -0.19922,0.96093 -0.34375,1.36328 -0.57813,1.6289 -2.23828,3.10937 -4.02344,3.15625 0.0156,0.54687 0.22656,1.0039 0.25781,1.5664 0.4375,7.94922 0.88282,16.75 -8.51953,18.75391 -2.14062,0.45703 -5.92187,0.58984 -7.53515,2.48438 -0.15235,0.17578 -0.77735,0.8164 -0.9961,2.08984 -0.17969,1.06641 -0.21484,2.78516 -0.17969,3.91406 0.0274,0.92969 0.0977,1.34375 0.21094,1.6875 0.10156,0.30078 0.3125,0.31641 0.5586,0.41406 1.96875,0.79688 5.04296,1.19922 7.20703,1.80079 8.16015,2.26171 21.25781,5.90234 28.39062,10.05468 5.58594,3.25782 9.1211,12.34766 12.20313,17.96875 2.43359,4.4336 5.02734,8.81641 7.39062,13.28907 0.46485,0.88671 1.02735,1.83984 1.19141,2.82031 l 9.80469,0.0352 15.24218,-52.30859 -11.73828,4.19922 c -8.92969,2.74609 -26.7539,7.45312 -29.52344,-5.65234 -1.67968,-7.95704 2.75,-21.52735 5.1211,-29.44532 3.99609,-13.37109 8.69531,-27.78125 14.12109,-40.61328 2.33594,-5.52734 3.66016,-8.96484 9.19922,-11.96875 5.98438,-3.242185 12.92188,-5.277341 19.07422,-8.183591 0.65625,-0.308594 2.41016,-0.992188 2.51172,-1.621094 0.40625,-2.558594 -2.04297,-3.320313 -4.07813,-3.714844 -6.46875,-1.246093 -12.32031,-1.269531 -16.57031,-7.277343 -1.85937,-2.628907 -2.94531,-6.417969 -3.58984,-10.589844 l -0.22657,-1.668043 c -0.84765,-6.769531 -0.6914,-14.242187 -0.83984,-19.332031 -0.15234,-5.277344 -1.05469,-8.960938 1.28125,-14.027344 2.52344,-5.476562 7.42578,-10.113281 13.1875,-13.226562 l 3.34766,-1.632819 c 0.0312,0 0.0508,0.01172 0.0781,0.01563 5.07422,-2.097656 10.54688,-3.03125 15.53516,-2.351562 2.58203,0.351562 5.17969,1.152343 7.66406,2.285156 0.0703,-0.01953 0.14063,-0.04687 0.22656,-0.04687 l 30.45456,45.323316 z m -56.94532,-41.625 c 3.14844,8.644531 10.65235,20.289063 19.48829,23.820313 0.37109,0.144531 0.65234,0.238281 0.88281,0.292968 0.42578,-0.382812 0.85156,-0.765625 1.27344,-1.148437 0.1875,-0.167969 0.39453,-0.222657 0.59375,-0.207031 0.0664,-0.0625 0.14062,-0.128907 0.21875,-0.195313 3.86718,-3.210937 8.93359,-1.035156 11.11718,2.992187 3.96875,7.308594 -1.08984,15.199219 -9.03906,15.746094 -0.80469,4.355469 -0.46484,8.511719 4.21484,10.171875 3.04688,-2.542969 5.62891,-5.230469 7.58204,-8.71875 7.27734,-12.996093 5.10546,-35.535156 -6.82422,-45.246093 -8.59766,-7 -18.24219,-8.597657 -28.66016,-4.570313 -0.34766,0.136719 -2.26562,0.839844 -2.33984,0.945313 -0.41797,0.597656 1.15234,5.175781 1.49218,6.117187 z m -16.60546,11.855469 c 0.14843,0.164062 1.52734,-0.832032 1.78125,-1.011719 5.07031,-3.601563 9.10156,-9.691406 11.11718,-15.527344 -0.41406,-0.08203 -0.64062,0.210938 -0.95312,0.386719 -5.50781,3.121094 -11.11719,9.761719 -11.94531,16.152344 z m -0.2461,1.953125 c 0.12891,0.269531 0.23047,0.527343 0.25,0.835937 0.28906,4.136719 0.32813,8.292969 0.40235,12.445313 0.0156,-0.01172 0.0312,-0.02734 0.0469,-0.04297 2.28125,-1.726562 5.60156,-2 8.32031,-1.398438 1.63282,0.363282 3.51953,1.238282 4.40625,2.714844 0.47657,-0.496094 1.05078,-0.902344 1.73047,-1.023437 1.17188,-0.210938 2.13672,0.351562 2.91406,1.140625 0.28907,-0.535156 0.70313,-1.023438 1.24219,-1.433594 2.28125,-1.726562 5.60156,-2 8.31641,-1.398438 1.73828,0.386719 3.7539,1.351563 4.55469,2.996094 1.19531,-1.074218 2.38671,-2.144531 3.57812,-3.21875 -0.9375,-0.40625 -1.89844,-0.875 -2.33984,-1.121094 -8.625,-4.773437 -16.1211,-16.808593 -18.95313,-26.058593 -0.0976,-0.324219 -0.11719,-0.652344 -0.10937,-0.984375 l -2.57422,5.089844 c -3.01563,4.492187 -6.6836,9.289062 -11.78516,11.457031 z m 30.95703,16.214843 c -0.12109,-2.054687 -3.16797,-2.855468 -4.78515,-3.019531 -2.04688,-0.207031 -4.61719,0.07813 -6.19922,1.539063 -0.48438,0.445312 -0.88672,1.046875 -0.8086,1.730468 0.0898,0.769532 0.73438,1.382813 1.34766,1.78125 1.88281,1.21875 4.44531,1.429688 6.59766,0.976563 1.42187,-0.300781 3.75781,-1.128906 3.85156,-2.890625 -0.004,-0.03906 -0.004,-0.07813 -0.004,-0.117188 z m -16.15625,-0.800781 c 0,0.0039 0.0274,-0.01953 0.0547,-0.04297 -0.0273,0.01563 -0.0547,0.03516 -0.0547,0.04297 z m -14.0625,1.644531 c 0.25391,0.496094 0.71485,0.898438 1.16016,1.1875 1.88281,1.21875 4.44531,1.429688 6.59766,0.976563 1.4375,-0.304687 3.80468,-1.144531 3.85546,-2.941406 -0.0586,-2.105469 -3.15625,-2.921875 -4.79296,-3.085938 -2.04688,-0.207031 -4.61719,0.07813 -6.19922,1.539063 -0.27344,0.253906 -0.51172,0.558594 -0.66016,0.902344 0.0117,0.472656 0.0273,0.949218 0.0391,1.421874 z m 24.44141,29.40625 c 1.94531,2.925782 -0.52734,7.265626 -0.35938,10.324219 0.0547,1.042969 0.38282,2.718749 0.60157,3.781249 0.52343,2.55078 1.57422,4.97656 2.08203,7.53125 0.30078,0.37891 6.23047,-5.57031 6.69531,-6.07422 4.45313,-4.804685 9.35156,-11.281248 11.84375,-17.35156 0.29688,-0.722656 1.125,-2.730469 0.8125,-3.328125 -0.12109,-0.238281 -0.52734,-0.460937 -0.72266,-0.742187 -0.23828,-0.339844 -0.30859,-0.789063 -0.6289,-1.078126 -0.66406,-0.597656 -2.32031,-1.0625 -3.27344,-1.835937 -3.08203,-2.492187 -3.54687,-7.492187 -2.30859,-11.054687 0.42968,-1.238282 2.16406,-0.839844 3.45312,-1.171876 4.85156,-1.25 7.80469,-5.988281 6.40235,-10.882812 -0.61719,-2.160156 -2.5586,-5.128906 -4.92969,-5.53125 -1.50781,-0.257812 -3.77344,0.08984 -4.85547,1.238281 -0.38281,0.40625 -0.61719,1.308594 -0.86719,1.5625 -0.14062,0.144531 -1.01562,0.507813 -1.23828,0.492188 -0.11719,-0.0078 -0.28125,-0.04687 -0.46484,-0.09766 -1.63672,1.472657 -3.27735,2.945313 -4.91407,4.421876 -0.35937,2.722656 -3.625,3.949218 -6.01562,4.242187 -2.61328,0.324219 -5.87891,-0.144531 -7.80078,-2.121094 -0.64063,-0.660156 -0.97656,-1.410156 -1.04297,-2.164062 -0.25,-0.367188 -0.49609,-0.6875 -0.83984,-1.007813 -0.0703,-0.06641 -0.14063,-0.125 -0.21485,-0.1875 v -0.0039 c -0.0351,-0.02344 -0.0664,-0.04687 -0.0976,-0.06641 -0.11329,-0.07813 -0.23438,-0.136719 -0.35157,-0.199219 -0.0234,-0.01172 -0.0664,-0.03125 -0.10937,-0.04297 -0.0547,-0.01953 -0.10938,-0.03516 -0.16797,-0.04687 -0.0117,-0.0039 -0.0234,-0.0039 -0.0352,-0.0078 -0.0391,0 -0.10156,-0.0078 -0.12109,-0.0078 -0.0547,0 -0.10938,0.0039 -0.16797,0.0039 -0.0937,0.02344 -0.18359,0.04688 -0.27344,0.07422 -0.0117,0.0039 -0.008,0 -0.0117,0.0039 -0.043,0.01953 -0.0859,0.03906 -0.125,0.0625 -0.0859,0.04687 -0.16796,0.09766 -0.24609,0.152343 -0.004,0.0039 -0.0156,0.01172 -0.0234,0.01563 -0.0312,0.02734 -0.0625,0.05078 -0.0937,0.07813 -0.0703,0.0625 -0.14062,0.128907 -0.20703,0.195313 -0.0664,0.07031 -0.13281,0.140625 -0.19531,0.214844 -0.0273,0.03125 -0.0547,0.0625 -0.082,0.09375 -0.082,0.117187 -0.16797,0.230468 -0.24219,0.351562 -0.0508,0.07813 -0.0898,0.15625 -0.13672,0.238281 -0.26953,2.8125 -3.59765,4.074219 -6.02734,4.371094 -2.30078,0.285156 -5.10547,-0.04687 -7.05469,-1.480469 0.082,1.921875 0.19922,3.835938 0.39063,5.742188 0.89843,9.074218 3.30078,15.542968 12.89843,17.757812 3.22266,0.746094 9.14453,0.636719 11.06641,3.535156 z m 15.29687,82.648438 c 8.32032,-3.82422 16.71485,-7.48828 24.99219,-11.39063 0.0899,-0.42578 -0.11719,-0.48437 -0.40234,-0.6914 -2.94531,-2.13672 -11.78125,-3.14063 -15.53516,-3.44531 -11.54297,-0.9336 -23.80469,-0.1836 -35.26172,1.73828 -6.18359,1.03515 -12.36328,2.42968 -18.23828,4.58203 -0.1914,0.10156 -0.88672,2.2539 -1.01953,2.68359 -1.75391,5.54688 -2.11328,12.09375 -1.58594,17.88281 0.21485,2.33204 0.83594,4.625 1.22266,6.92969 16.17187,-3.64453 30.89844,-11.42578 45.82812,-18.28906 z m -137.89843,-3.41406 c 1.28906,0.27734 4.28906,-0.28125 5.18359,0.17187 0.67969,0.34375 1.63281,4.01172 1.87891,4.9336 1.22656,4.67578 2.65234,12.96093 0.4414,17.33593 -0.51953,1.02344 -1.3164,1.96094 -2.26953,2.6875 2.25,1.70703 4.74219,3.09375 7.4961,3.79297 5.8125,1.47656 12.4375,-0.76953 16.33984,-5.33203 0.0742,-0.0859 0.15625,-0.14453 0.23828,-0.18359 -0.57031,-2.15235 -0.043,-7.04688 0.38672,-8.16407 0.29687,-0.76953 0.82812,-1.48437 1.78516,-2.16406 4.13671,-2.93359 10.80468,-0.74609 13.5039,-6.20312 1.44531,-2.92969 1.21875,-9.63672 1.08594,-13.02735 -0.24219,-6.25781 -1.39453,-12.51172 -2.16797,-18.75 -0.23437,-1.8789 -0.40625,-3.80078 -0.51172,-5.6914 -0.1914,-0.19532 -2.17578,0.9414 -2.67578,1.08984 -4.55078,1.34766 -8.72656,-0.0859 -12.28906,-2.79687 -0.21094,-0.16016 -0.24219,-0.33594 -0.60938,-0.24219 -1.32812,5.32812 -6.57422,9.71875 -12.16797,7.29687 0.24219,4.88672 -1.33593,12.32813 -7.04687,13.26953 -3.46875,0.57032 -4.23828,-2.17968 -7.18359,-2.08984 -5.02344,0.14844 -7.71094,4.82031 -6.01954,9.42578 0.66797,1.82031 2.63672,4.22266 4.60157,4.64063 z m -43.73828,44.32031 c 1.53515,0.49609 3.02734,1.15625 4.57031,1.64062 20.0625,6.30469 50.6914,3.47266 69.09765,-6.94531 4.67969,-2.64844 9.48438,-6.27344 12.00391,-11.10547 l -11.57812,-3.53906 c -0.0274,0.11328 -0.0781,0.22656 -0.16797,0.33594 -0.52344,0.60937 -1.13282,1.15234 -1.7461,1.66406 -2.88672,2.41016 -6.36328,4.08203 -10.11718,4.51172 -5.38282,0.61328 -10.37891,-1.64453 -14.53125,-4.88281 -1.04688,0.48047 -2.19532,0.70703 -3.34375,0.55078 -0.52735,-0.0742 -1.00782,-0.42188 -1.5,-0.46485 -0.89844,-0.0859 -6.37891,2.21875 -7.70313,2.72657 -7.92187,3.03906 -16.19922,6.23437 -23.95703,9.6289 -3.21094,1.40235 -7.94141,3.33985 -10.71875,5.33203 -0.21484,0.15625 -0.44141,-0.0195 -0.30859,0.54688 z m 43.32031,91.22266 c -6.96875,-1.91016 -13.78516,-4.48438 -20.87891,-6.01172 -4.0625,-0.8711 -9.18359,-1.8086 -13.30469,-2.02735 -1.11718,-0.0586 -6.19921,0.27344 -6.65234,-0.28515 -0.11328,-0.14063 -0.19531,-0.73438 -0.16797,-0.94922 l 9.85156,-27.70313 h -33.09765 c -1.46094,8.27735 -3.28906,16.48828 -4.80078,24.75782 -1.01563,5.54296 -2.20313,11.43359 -2.96094,16.98437 -0.35938,2.61328 -0.79688,5.86719 -0.49219,8.46875 0.13281,1.11719 1.17969,3.57813 2.07813,4.24609 0.51953,0.38672 3.05468,1.49219 3.62109,1.49219 h 66.80469 z M 551.67969,238.45312 H 421.71484 v 83.67969 H 551.67969 Z M 684.6875,217.53516 c -1.91797,6.34375 -3.35156,12.8125 -4.98828,19.21875 h 14.96875 c 0.0586,0 0.85156,0.78906 0.85156,0.84765 v 84.53125 h 43.44141 c 0.30078,0 0.53906,-1.47265 0.58593,-1.85156 0.26954,-2.17578 0.14454,-4.35547 0.26563,-6.54297 1.57422,-28.32812 4.57422,-56.50391 5.36719,-84.87891 0.25781,-9.17968 0.80859,-21.79687 -1.29688,-30.59375 -2.62109,-10.96875 -12.6289,-13.26953 -22.13281,-16.30859 -5.92188,-1.89453 -11.92969,-3.64844 -17.92188,-5.25781 -8.23046,12.69922 -14.7539,26.30859 -19.14062,40.83594 z m -18.90625,-59.77735 c 0.004,-0.17969 0.004,-0.36719 -0.0781,-0.52344 -0.11328,-0.22656 -0.36328,-0.34765 -0.59765,-0.44921 -6.96094,-3.03125 -14.10547,-2.52735 -21.35938,-1.19532 0.52344,4.89063 1.76563,9.65235 5.0625,12.1836 0,0 4.97657,-0.52344 11.34766,-1.96094 4.09375,-0.92188 5.52734,-4.05078 5.625,-8.05469 z m 1.99609,19.51953 c 0.45703,4.03907 0.13282,8.39844 0.96875,12.40625 0.0703,0.33594 -0.0273,0.61328 0.36719,0.84766 6.71094,-6.33203 13.34375,-12.75 19.95313,-19.20313 -0.3086,-2.46875 -0.23047,-4.95312 -0.35938,-7.42968 -0.10156,-1.91407 -0.39453,-3.92188 -0.49219,-5.83594 -0.23828,-4.62109 1.33203,-3.20313 4.47657,-4.77344 4.16015,-2.07812 5.48046,-5.82812 4.74609,-10.27734 -0.46875,-2.81641 -1.94922,-5.64063 -4.77344,-6.66406 -2.26172,-0.82032 -3.91015,-0.52735 -5.89453,0.80859 -0.81641,0.55078 -0.94531,1.19141 -2.1875,1.45703 -3.75,0.80859 -6.89844,-2.45312 -7.87109,-5.78125 -0.19141,-0.64062 -0.66407,-2.44141 -0.66407,-2.98828 v -6.44531 l -3.40625,1.58203 c -1.77734,0.45703 -3.84375,1.26562 -5.69531,1.07422 -2.7539,-0.28516 -5.73437,-2.16016 -6.10547,-5.08594 -5.97656,2.19922 -12.44922,3.94141 -18.86328,3.89063 l -0.004,0.125 c 0.45312,1.16015 0.17578,2.42578 0.24218,3.64843 0.3086,5.41797 0.66407,10.875 0.98047,16.29297 0.0977,1.69531 0.12891,3.69922 0.21875,5.82031 0.76172,-0.26172 1.74219,-0.53515 1.85938,-0.57031 2.35937,-0.69531 4.8125,-1.07812 7.26953,-1.15625 5.71484,-0.1875 12.45312,1.16406 17.5039,3.875 0.85938,0.46094 1.74219,1.03906 2.11719,1.94141 0.26953,0.65234 0.23828,1.38672 0.14453,2.08593 -0.61328,4.57813 -4.1289,11.875 -9.25781,13.65235 3.51172,0.85156 4.3125,3.05859 4.72656,6.70312 z m -103.92578,61.17578 v 83.67969 h 129.96485 v -83.67969 z m 39.1836,-1.69921 h 40.88671 c -0.125,-2.875 0.47657,-5.72657 1.08985,-8.51954 3.72656,-16.90625 11.96484,-33.67187 18.91015,-49.45312 0.0898,-0.19531 0.4336,-0.5 0.0781,-0.65234 -5.30078,1.96875 -10.60547,3.94531 -15.99609,5.66015 -5.99219,1.90625 -12.16407,3.30078 -18.14063,5.21875 -0.99609,0.32031 -2.47656,0.69922 -3.23047,1.39453 -9.53906,14.52735 -16.35547,30.60547 -23.59765,46.35157 z m -63.35547,-55.17579 c -0.4336,0.20313 -0.91407,0.35547 -1.38282,0.44532 l 2.0625,0.48828 c 19.91407,1.98047 39.87891,4.29297 59.875,2.66797 1.17188,-0.10157 6.46094,-0.23047 7.125,-0.78125 0.25391,-0.21094 1.01954,-2.37891 1.15235,-2.86328 1.59765,-5.9375 0.42578,-15.19922 -2.02344,-20.84375 -0.87891,-2.01954 -4.07422,-7.91016 -6.5,-7.87891 -0.62891,0.004 -5.17578,2.78125 -6.19531,3.30859 -17.6211,9.13672 -36.10547,17.05078 -54.11328,25.45703 z M 592.32812,47.386719 c 0.89063,-9.214844 1.26954,-25.992188 -12.51953,-24.1875 -3.71875,0.484375 -8.18359,4.625 -8.3125,8.503906 6.53516,11.792969 7.60938,27.871094 1,39.890625 -1.82422,3.316406 -4.02734,5.546875 -6.6914,8.15625 -0.45703,0.441406 -0.95703,0.1875 -0.73828,1.195312 0.0547,0.242188 0.75781,1.300782 0.90625,1.34375 1.10937,0.320313 2.8164,0.335938 4.01562,0.554688 6.07031,1.09375 12.11328,2.40625 18.19922,3.339844 l 1.82031,-17.035156 c -0.0586,-0.214844 -0.0312,-0.445313 0.0664,-0.644532 z M 560.83984,21.273438 c 3.63672,2.160156 6.875,5.023437 9.21875,8.230468 1.02344,-1.914062 1.85547,-3.535156 3.52344,-4.988281 5.49609,-4.804687 13.97266,-3.96875 17.97656,2.230469 3.42969,5.316406 2.78907,12.4375 2.46875,18.445312 -0.35226,6.625272 -1.04816,13.23586 -1.81774,19.836855 -0.11794,1.011632 -0.23761,2.023039 -0.35804,3.034239 L 561.33362,22.018429 Z m 60.35157,261.429682 c -3.92579,-7.52343 4.14062,-15.83203 11.70312,-11.9414 5.49219,2.82422 6.46484,10.53906 1.69531,14.55469 -4.23047,3.55859 -10.84765,2.27734 -13.39843,-2.61329 z m 4.0664,2.01172 c 6.10156,3.25 12.82813,-2.4375 10.19531,-8.97265 -1.23828,-3.08203 -4.71875,-4.60157 -7.89843,-4.14453 -6.29688,0.90625 -7.91407,10.1289 -2.29688,13.11718 z m -146.20312,-2.01172 c -3.92578,-7.52343 4.14453,-15.83203 11.70703,-11.9414 5.49219,2.82422 6.46484,10.53906 1.69531,14.55469 -4.23047,3.55859 -10.84766,2.27734 -13.40234,-2.61329 z m 4.07031,2.01172 c 6.10156,3.25 12.82812,-2.4375 10.19531,-8.97265 -1.24219,-3.08203 -4.71875,-4.60157 -7.89844,-4.14453 -6.29687,0.90625 -7.91406,10.1289 -2.29687,13.11718 z"
       fill-opacity="1"
       fill-rule="nonzero"
       id="path8"
       sodipodi:nodetypes="cccccccccccccccccccccccccccccccccccccccccccccccccccccccccccccccccccccccccccccccccccccccccccccccccccccccccccccccccccccscccccccccccccccsssccccccssscssccccccssccccccccccccccscccccccccccccccsccccccccccccccccccccccccccccccccccccccccccccccccccccccccccccccccccccccccccccscccccccccsscscccccccscccccssscccccccccccscccccccccccccccssccccccccccsccsccccccccccccccccccccccccccccsccccscccccccccccccc" />
  </g>
  <path
     fill="#ffffff"
     d="M 341.320312 316.3125 L 341.320312 322.914062 L 1.265625 322.914062 L 1.265625 316.3125 L 35.25 316.3125 C 35.578125 316.3125 36.214844 315.257812 35.359375 314.835938 C 34.695312 314.507812 32.824219 314.285156 31.902344 313.972656 C 23.761719 311.226562 19.007812 303.082031 22.363281 294.753906 C 24.429688 289.628906 28.496094 286.515625 33.488281 284.496094 C 35.644531 283.621094 36.648438 284.191406 36.273438 281.023438 L 63.4375 281.023438 C 63.460938 281.023438 63.777344 281.339844 63.777344 281.367188 L 63.777344 315.742188 C 63.777344 315.914062 64.5 316.425781 64.789062 316.324219 C 68.1875 316.011719 72.175781 316.695312 75.496094 316.324219 C 76.085938 316.257812 76.410156 316.003906 76.691406 315.472656 L 87.878906 235.84375 C 87.828125 235.417969 87.488281 235.09375 87.074219 235.039062 C 84.421875 234.964844 81.757812 235.125 79.109375 235.046875 C 67.921875 234.714844 49.835938 234.503906 40.15625 228.757812 C 30.476562 223.015625 30.394531 214.15625 31.273438 203.964844 C 32.503906 189.765625 35.835938 174.316406 39.519531 160.539062 C 41.734375 152.25 45.621094 137.65625 52.179688 132.015625 C 58.046875 126.964844 66.914062 125.847656 74.300781 124.574219 C 76.382812 122.957031 72.558594 122.347656 71.347656 121.703125 C 59.828125 115.5625 70.929688 101.410156 74.183594 93.492188 C 80.351562 78.472656 79.992188 65.121094 95.757812 56.136719 C 108.480469 48.886719 132.28125 46.613281 142.648438 58.941406 C 148.234375 65.585938 152.660156 82.226562 154.179688 90.878906 C 156.503906 104.132812 157.195312 125.171875 139.5625 127.101562 C 138.210938 127.25 134.691406 126.730469 137.132812 128.894531 C 144.472656 131.726562 152.964844 133.773438 159.324219 138.546875 C 165.871094 143.460938 167.914062 154.691406 169.632812 162.367188 C 173.917969 181.453125 176.78125 201.085938 178.335938 220.582031 C 178.777344 226.109375 179.058594 231.660156 179.480469 237.195312 C 179.542969 238.058594 179.125 239.953125 180.085938 240.230469 C 180.464844 240.339844 181.441406 240.339844 181.820312 240.230469 C 183.035156 239.878906 182.21875 236.601562 182.195312 235.617188 C 182.085938 231.601562 182.011719 223.847656 183.175781 220.1875 C 184.132812 217.171875 188.054688 214.996094 190.632812 213.3125 C 203.914062 204.628906 219.109375 199.378906 233.738281 193.421875 C 234.910156 192.847656 235.074219 191.730469 235.167969 190.53125 C 235.273438 189.207031 235.222656 187.679688 234.6875 186.457031 C 233.234375 183.140625 229.742188 183.707031 226.753906 183.019531 C 217.164062 180.816406 215.191406 171.316406 213.414062 162.914062 C 212.992188 160.917969 212.582031 156.351562 211.925781 154.84375 C 211.664062 154.238281 209.597656 152.5625 208.929688 151.695312 C 203.136719 144.15625 201.875 134.996094 206.484375 126.515625 C 209.859375 120.3125 218.480469 112.226562 225.964844 112.550781 C 226.480469 112.574219 226.949219 112.914062 227.511719 112.75 C 228.007812 112.601562 229.023438 110.277344 229.59375 109.589844 C 234.492188 103.683594 247.101562 102.96875 254.082031 104.199219 C 273.257812 107.574219 280.761719 123.558594 279.730469 141.820312 C 278.917969 156.238281 269.414062 169.574219 260.894531 180.554688 C 260.796875 180.835938 260.839844 181.113281 260.867188 181.398438 C 260.988281 182.582031 261.761719 186.046875 262.144531 187.183594 C 262.625 188.609375 263.410156 187.996094 264.582031 188.160156 C 277.871094 190.046875 292.363281 192.394531 305.453125 195.265625 C 309.835938 196.222656 319.847656 198.382812 322.910156 201.453125 C 325.988281 204.542969 328.484375 214.226562 329.664062 218.59375 C 335.355469 239.632812 339.316406 263.925781 340.863281 285.695312 C 341.011719 287.765625 341.394531 289.378906 340.746094 291.492188 C 338.980469 297.238281 332.097656 299.089844 326.699219 299.050781 C 326.097656 299.296875 325.988281 299.867188 326.109375 300.460938 C 327.460938 305.066406 327.699219 310.738281 329.101562 315.230469 C 329.1875 315.503906 329.628906 316.3125 329.839844 316.3125 Z M 66.429688 170.628906 C 66.042969 170.738281 65.878906 171.226562 65.753906 171.5625 C 64.238281 175.707031 63.105469 181.667969 62.066406 186.085938 C 60.929688 190.9375 59.050781 197.589844 58.570312 202.390625 C 58.5 203.089844 58.417969 203.710938 59.171875 204.019531 C 60.480469 204.550781 62.554688 204.882812 64.003906 205.324219 C 69.519531 207 75.019531 208.730469 80.539062 210.402344 C 81.890625 210.707031 82.273438 209.628906 81.742188 208.503906 L 67.585938 171.460938 C 67.375 171.0625 66.9375 170.484375 66.429688 170.628906 Z M 34.847656 288.800781 C 34.390625 288.890625 33.105469 289.523438 32.632812 289.785156 C 26.082031 293.402344 23.347656 302.988281 29.796875 308.113281 C 31.046875 309.105469 35.984375 311.652344 36.285156 308.925781 C 36.183594 302.4375 36.433594 295.910156 36.15625 289.449219 C 35.769531 288.960938 35.503906 288.671875 34.847656 288.800781 Z M 34.847656 288.800781 "
     fill-opacity="1"
     fill-rule="nonzero"
     id="path9" />
  <path
     fill="#d3d3d3"
     d="m 182.43359,240.26953 c -0.19531,-4.09375 -0.40625,-8.28906 -0.23828,-12.41797 0.0859,-2.11719 0.29297,-5.71875 0.98047,-7.66797 0.76563,-2.16797 4.61328,-4.66797 6.54688,-5.96484 13.41797,-8.97656 29.33593,-14.32813 44.21093,-20.39063 l 0.3125,0.0117 c 0.13282,0.82813 0.83204,1.35938 1.25782,2.04297 2.82812,2.5625 5.4375,6.60547 8.29687,8.99219 2.21875,1.84766 3.33985,0.96875 5.23828,-0.68359 1.63672,-1.42188 3.42578,-3.48047 4.88672,-5.1211 3.01953,-3.39453 5.83203,-7.00781 8.4375,-10.72265 15.08203,3.03515 30.57422,4.55078 45.54688,8.09375 4.14843,0.98046 12.57031,2.83203 15.22265,6.15234 3.36328,4.21484 5.83594,14.88672 7.21485,20.32422 4.89062,19.27344 8.46484,41.32812 10.0664,61.17578 0.0234,0.26172 0.0469,1.42578 -0.004,1.48437 -0.0195,0.0234 -0.64844,0.0156 -0.66797,-0.0117 -0.0508,-0.082 -0.0156,-0.41407 -0.14453,-0.64454 -7.67188,-13.78906 -18.05079,-17.05859 -33.40625,-16.66015 -15.07813,0.39453 -30.25391,1.77734 -45.19532,4.13672 -4.05078,0.64062 -8.97656,1.28125 -12.875,2.35937 -5.75781,1.58985 -9.59765,7.81641 -12.71093,12.5 l -0.57813,0.13281 -18.1875,-47.12109 z M 140.26563,127.35156 c 2.83593,0 7.80078,-2.74609 9.66015,-4.89843 8.84375,-10.25 4.14063,-32.863286 0.57031,-44.73438 -2.42187,-8.066406 -5.30468,-17.304687 -12.54296,-22.269531 -11.14454,-7.636719 -32.4336,-4.980469 -43.558599,1.824218 -14.550782,8.894532 -14.714844,23.273438 -20.734375,37.515626 -3.085938,7.300777 -13.234375,20.785157 -3.222657,26.914067 7.382813,4.51953 18.5625,1.70312 23.792969,-4.94532 1.839844,-2.33203 3.363281,-5.07422 3.644531,-8.07422 -3.054687,0.57813 -5.851562,0.21875 -8.1875,-1.93359 -6.140624,-5.64844 -1.523437,-15.792969 6.65625,-14.40625 0.890626,0.148437 1.960938,1.054687 2.777344,1.058594 1.499997,0.0039 4.792967,-1.65625 6.179687,-2.4375 5.96094,-3.359375 12.14063,-9.25 14.89063,-15.59375 0.58984,-1.359375 0.92187,-3.289063 1.5,-4.414063 0.9375,-1.820312 1.61328,1.199219 1.80468,1.929688 1.1211,4.238281 1.73438,9.015625 1.20313,13.371094 -0.21484,1.722656 -0.79297,3.402343 -0.91406,5.121093 1.88672,0.121094 3.94531,-0.542969 5.68359,-1.253906 6.33594,-2.597656 10.19922,-8.089844 11.75391,-14.636719 0.12109,-0.519531 0.34375,-2.96875 0.86328,-3 0.43359,-0.02734 0.34765,2 0.57031,2.382813 0.30469,5.851562 0.31641,11.671875 0.44141,17.542969 0.22265,10.667967 2.21484,27.007817 -7.86719,33.996097 -0.48047,0.33593 -0.94141,0.0352 -0.75781,0.9414 z M 1.269531,316.99219 v 6.14843 H 340.75391 c 0.67968,0 0.18359,-2.2539 0.1875,-2.66015 0.0117,-1.14844 0.36718,-2.26953 -0.0742,-3.48828 z m 326.640629,-5.46485 -2.28125,-11.60156 c -6.12891,-0.21484 -12.09766,-1.73437 -18,-3.25781 -3.85938,-0.9961 -7.72266,-2.10156 -11.54297,-3.23828 -6.89453,-2.04688 -13.69922,-4.47657 -20.57422,-6.51172 -0.41016,-0.0625 -0.35938,0.35156 -0.5586,0.58594 -2.54296,2.94921 -8.22265,6.21484 -12.16796,6.23437 -1.30079,0.004 -3.08594,-0.62109 -4.32422,-0.62109 -1.07032,0 -2.16797,1.15234 -2.83203,1.91015 -2.64453,3.02735 -8.1211,11.85157 -11.0586,13.50782 -0.32031,0.17968 -1.3789,0.44921 -1.42187,0.51171 -0.25,0.35547 0.46094,2.39454 0.76953,2.48047 z M 170.71484,274.40625 c -0.82421,3.38672 0.54688,7.78516 3.75,9.47266 2.99219,1.57421 6.66797,0.23046 7.23438,-3.25 0.76953,-4.71875 -2.23828,-10.73829 -7.74219,-9.57422 -1.32422,0.27734 -2.92969,2.0625 -3.24219,3.35156 z m 0,0"
     fill-opacity="1"
     fill-rule="nonzero"
     id="path10" />
  <g
     clip-path="url(#309f08ec04)"
     id="g11">
    <path
       fill="#000000"
       d="M 342.464844 316.648438 C 342.417969 316.21875 342.328125 315.824219 342.007812 315.507812 L 330.207031 315.375 L 326.996094 300.035156 C 326.988281 299.835938 329.21875 299.933594 329.589844 299.898438 C 333.292969 299.523438 337.585938 298 339.917969 294.988281 C 342.054688 292.226562 342.195312 289.777344 342.011719 286.363281 C 341.785156 282.101562 341.121094 277.25 340.617188 272.964844 C 338.546875 255.382812 335.546875 237.054688 331.027344 219.960938 C 329.566406 214.429688 327.023438 203.527344 322.566406 199.980469 C 318.535156 196.773438 306.671875 194.5 301.359375 193.441406 C 288.671875 190.914062 275.78125 189.410156 263.105469 186.867188 L 261.792969 180.785156 C 267.476562 173.675781 272.917969 166.183594 276.578125 157.785156 C 285.175781 138.085938 281.1875 110.519531 257.84375 104.070312 C 249.316406 101.714844 233.117188 101.859375 227.886719 110.382812 C 227.648438 110.769531 227.460938 111.765625 227.078125 111.839844 C 220.546875 110.757812 213.703125 115.867188 209.589844 120.515625 C 200.023438 131.335938 200.445312 145.265625 211.066406 155.070312 C 212.980469 164.742188 214.085938 180.695312 225.570312 183.75 C 227.550781 184.277344 231.28125 184.289062 232.78125 185.402344 C 234.613281 186.761719 234.476562 190.472656 233.753906 192.414062 C 219.417969 198.207031 204.417969 203.402344 191.316406 211.71875 C 188.859375 213.277344 183.785156 216.339844 182.617188 218.945312 C 181.621094 221.164062 181.675781 223.90625 181.523438 226.273438 C 181.273438 230.257812 181.183594 234.121094 181.523438 238.105469 C 181.632812 239.386719 181.703125 239.488281 180.386719 239.363281 C 180.277344 233.296875 179.753906 227.285156 179.480469 221.261719 C 176.804688 198.472656 174.558594 173.9375 168.046875 151.890625 C 164.933594 141.339844 161.589844 137.484375 151.515625 133.160156 C 147.152344 131.292969 142.585938 129.789062 138.109375 128.261719 C 138.046875 127.890625 138.414062 128.042969 138.671875 128.035156 C 156.699219 127.558594 157.574219 106.859375 155.585938 93.339844 C 154.160156 83.660156 149.414062 65.429688 143.105469 58.03125 C 132.53125 45.632812 108.609375 47.976562 95.59375 55.0625 C 78.535156 64.351562 79.144531 80.605469 71.929688 96.246094 C 68.171875 104.382812 59.851562 115.195312 70.363281 122.234375 L 73.550781 123.707031 C 66.71875 124.90625 58.621094 126.050781 52.882812 130.214844 C 45.308594 135.714844 41.460938 149.738281 39.0625 158.492188 C 35.847656 170.226562 33.050781 183.058594 31.296875 195.105469 C 29.269531 209.003906 27.027344 224.191406 42.253906 230.980469 C 51.792969 235.234375 67.078125 235.660156 77.519531 235.957031 C 80.394531 236.039062 83.289062 235.875 86.167969 235.945312 L 86.703125 236.316406 L 75.484375 315.402344 L 64.6875 315.402344 L 64.6875 280.683594 C 64.6875 280.511719 63.964844 280 63.675781 280.101562 L 36.160156 280.117188 C 34.71875 280.359375 35.789062 282.433594 35.140625 282.964844 C 34.828125 283.222656 33.015625 283.613281 32.410156 283.871094 C 18.652344 289.742188 15.296875 306.355469 29.402344 313.972656 L 33.089844 315.402344 L 0.699219 315.402344 C 0.410156 315.402344 0.160156 316.769531 0.128906 317.109375 C 0.0273438 318.195312 0 322.882812 0.464844 323.605469 C 0.625 323.855469 0.894531 323.816406 1.140625 323.835938 C 114.761719 323.742188 228.414062 323.96875 342.015625 323.722656 C 342.261719 323.550781 342.425781 322.691406 342.460938 322.347656 C 342.601562 320.964844 342.605469 318.03125 342.464844 316.648438 Z M 327.453125 310.621094 L 244.261719 310.621094 C 244.195312 310.570312 243.78125 309.167969 243.898438 309.015625 C 243.972656 308.925781 245.285156 308.371094 245.699219 308.078125 C 246.121094 307.773438 246.523438 307.363281 246.878906 306.984375 C 250 303.609375 252.707031 299.308594 255.628906 295.714844 C 256.441406 294.714844 257.320312 293.261719 258.691406 293.207031 C 260.054688 293.152344 261.9375 293.847656 263.210938 293.765625 C 263.710938 293.730469 264.722656 293.585938 265.230469 293.488281 C 269.4375 292.695312 272.976562 289.839844 276 286.980469 C 286.722656 290.4375 297.425781 294.066406 308.355469 296.851562 C 313.941406 298.277344 319.605469 299.648438 325.382812 299.945312 Z M 338.269531 294.597656 C 333.3125 300.210938 321.261719 298.257812 314.722656 296.851562 C 310.742188 295.996094 306.558594 294.804688 302.628906 293.710938 C 293.597656 291.195312 284.753906 288.117188 275.792969 285.386719 C 274.71875 285.546875 274.386719 286.515625 273.792969 287.039062 C 270.980469 289.527344 267.097656 292.0625 263.234375 292.191406 C 261.925781 292.238281 260.007812 291.5625 258.691406 291.613281 C 257.550781 291.652344 256.683594 292.277344 255.851562 292.972656 C 252.542969 296.933594 249.628906 301.5625 246.195312 305.390625 C 245.554688 306.105469 244.265625 307.597656 243.261719 307.449219 C 243.105469 307.425781 242.464844 305.871094 242.5625 305.609375 L 253.6875 288.53125 C 254.105469 287.707031 253.503906 287.085938 252.667969 287.511719 C 252.167969 287.765625 248.65625 293.28125 248.027344 294.246094 C 245.921875 297.464844 243.933594 300.777344 241.875 304.019531 L 240.5 300.125 L 249.59375 285.570312 C 250.046875 284.597656 249.417969 283.738281 248.464844 284.441406 L 239.9375 298.324219 C 239.625 298.300781 239.570312 298 239.476562 297.769531 C 239.222656 297.160156 238.332031 294.90625 238.445312 294.453125 L 245.976562 281.714844 C 246.414062 280.695312 245.496094 280.109375 244.707031 280.90625 L 238.085938 292.027344 L 237.554688 292.632812 L 235.886719 287.996094 C 239.828125 282.875 242.457031 276.929688 249.257812 275.214844 C 253.339844 274.183594 258.164062 273.503906 262.359375 272.855469 C 276.828125 270.628906 291.621094 269.289062 306.199219 268.957031 C 319.378906 268.65625 331.035156 270.847656 337.953125 283.144531 C 340.257812 287.242188 341.757812 290.648438 338.269531 294.597656 Z M 225.746094 182.207031 C 217.816406 179.925781 215.660156 170.667969 214.132812 163.558594 C 212.542969 156.175781 210.652344 144.8125 213.339844 137.707031 C 214.707031 134.089844 217.507812 129.976562 221.300781 128.71875 C 221.375 132.789062 222.953125 137.371094 224.898438 140.9375 C 230.28125 150.8125 240.148438 154.621094 251.089844 152.289062 C 253.222656 151.835938 254.648438 150.5 256.644531 150.34375 C 260.214844 150.066406 263.222656 150.59375 264.5 154.320312 C 266.058594 158.871094 263.664062 163.738281 259.324219 165.546875 C 257.703125 166.226562 256.941406 165.519531 257.273438 167.933594 C 258.046875 173.582031 260.152344 179.863281 261.238281 185.589844 C 261.367188 186.257812 261.664062 187.109375 261.488281 187.746094 C 261.351562 188.25 258.671875 191.640625 258.121094 192.34375 C 255.628906 195.53125 252.800781 198.835938 249.949219 201.6875 C 249.496094 202.140625 247.417969 204.066406 247 204.199219 C 245.128906 204.800781 244.683594 203.484375 243.695312 202.476562 C 241.90625 200.648438 239.917969 198.695312 238.230469 196.792969 C 237.59375 196.074219 236.054688 194.40625 235.652344 193.6875 C 235.050781 192.609375 235.78125 191.03125 235.851562 189.847656 C 235.921875 188.625 235.578125 186.972656 235.058594 185.859375 C 233.476562 182.480469 228.816406 183.089844 225.746094 182.207031 Z M 182.875 227.625 C 182.957031 225.625 183.148438 222.144531 183.726562 220.285156 C 184.570312 217.578125 189.582031 214.621094 191.996094 213.085938 C 205.015625 204.792969 219.78125 199.855469 233.921875 193.855469 C 234.808594 194.992188 235.6875 196.164062 236.640625 197.25 C 238.519531 199.390625 241.71875 203.179688 243.800781 204.875 C 244.894531 205.765625 245.742188 206.210938 247.222656 205.789062 C 249.253906 205.210938 256 197.332031 257.667969 195.308594 C 259.511719 193.074219 261.140625 190.65625 263.003906 188.441406 C 273.300781 190.523438 283.75 191.800781 294.09375 193.664062 C 301.097656 194.925781 308.707031 196.25 315.460938 198.445312 C 317.9375 199.25 321.203125 200.328125 322.90625 202.371094 C 326.605469 206.8125 329.789062 221.042969 331.210938 227.0625 C 335.617188 245.761719 338.152344 264.878906 340.183594 283.984375 L 338.460938 281.042969 C 328.082031 264.835938 310.011719 267.050781 293.246094 268.050781 C 281.988281 268.71875 270.796875 269.914062 259.632812 271.71875 C 256.011719 272.304688 251.601562 272.894531 248.113281 273.84375 C 242.09375 275.476562 238.710938 281.578125 235.28125 286.257812 L 217.324219 239.363281 L 183.113281 239.363281 C 182.921875 235.492188 182.71875 231.527344 182.875 227.625 Z M 216.527344 240.957031 L 244.488281 315.402344 L 140.835938 315.402344 L 112.875 240.957031 Z M 98.402344 107.128906 C 96.152344 107.195312 94.390625 107.75 92.261719 106.679688 C 84.828125 102.941406 88.160156 91.175781 96.804688 93.023438 C 97.46875 93.164062 98.222656 93.902344 98.980469 93.996094 C 101.273438 94.269531 106.644531 91.09375 108.628906 89.746094 C 114.730469 85.613281 120.363281 79.460938 122.425781 72.257812 L 122.949219 73.890625 C 124.140625 79.183594 124.382812 83.585938 123.269531 88.929688 C 123.09375 89.773438 122.101562 91.617188 123.484375 92.023438 C 124.828125 92.417969 128.15625 91.402344 129.53125 90.875 C 135.089844 88.726562 139.753906 83.894531 141.519531 78.175781 C 141.996094 78.15625 141.949219 78.074219 141.972656 78.515625 C 142.050781 80.101562 141.914062 81.710938 141.96875 83.300781 C 142.328125 93.40625 144.027344 110.476562 139.742188 119.542969 C 137 125.339844 130.445312 128.28125 124.234375 126.789062 C 121.207031 126.058594 116.703125 122.957031 113.773438 123.585938 C 110.835938 124.214844 110.925781 127.738281 110.160156 129.980469 C 107.980469 136.34375 99.003906 133.242188 94.847656 130.726562 C 91.816406 128.890625 89.195312 125.871094 87.871094 122.574219 C 92.703125 120.6875 96.746094 116.105469 98.5 111.246094 C 98.96875 109.949219 99.921875 108.078125 98.402344 107.128906 Z M 66.957031 172.199219 L 81.050781 209.539062 L 59.457031 203.164062 C 61.277344 192.828125 63.914062 182.675781 66.484375 172.519531 C 66.578125 172.148438 66.441406 172.15625 66.957031 172.199219 Z M 159.359375 139.402344 C 159.695312 139.410156 161.105469 140.878906 161.410156 141.234375 C 166.820312 147.613281 169.597656 164.59375 171.230469 173.0625 C 175.445312 194.902344 178.101562 217.160156 178.796875 239.363281 L 154.699219 239.363281 L 154.644531 238.398438 L 140.183594 172.992188 C 143.210938 166.28125 146.882812 159.769531 150.566406 153.378906 C 152.785156 149.527344 155.121094 145.40625 157.558594 141.710938 C 157.859375 141.257812 158.929688 139.398438 159.359375 139.402344 Z M 72.871094 121.773438 C 60.09375 116.726562 71.09375 102.285156 74.34375 94.566406 C 80.253906 80.515625 80.496094 66.058594 94.847656 57.273438 C 106.699219 50.019531 129.820312 47.304688 140.621094 57.5625 C 146.824219 63.453125 151.007812 78.65625 152.8125 87.011719 C 155.175781 97.957031 157.679688 119.496094 145.007812 125.042969 C 144.125 125.429688 141.316406 126.441406 140.492188 126.441406 L 135.832031 126.441406 C 136.476562 125.636719 137.648438 124.988281 138.335938 124.28125 C 145.53125 116.902344 143.980469 101.007812 143.777344 91.507812 C 143.65625 85.710938 143.777344 79.714844 143.335938 73.964844 C 143.285156 73.300781 143.136719 71.566406 142.3125 71.566406 C 141.332031 71.5625 141.347656 73.425781 141.183594 74.089844 C 140.433594 77.195312 139.546875 79.804688 137.742188 82.480469 C 134.808594 86.835938 129.722656 90.027344 124.46875 90.46875 C 124.332031 90.335938 125.015625 88.238281 125.09375 87.796875 C 125.980469 82.738281 125.527344 75.457031 123.726562 70.609375 C 123.265625 69.367188 122.375 68.902344 121.539062 70.121094 C 119.332031 78.894531 112.609375 86.007812 104.847656 90.285156 C 103.636719 90.949219 100.417969 92.59375 99.152344 92.460938 C 98.613281 92.402344 97.609375 91.570312 96.796875 91.433594 C 93.066406 90.800781 89.1875 92.472656 87.53125 95.9375 C 84.828125 101.59375 88.265625 107.902344 94.347656 108.914062 L 97.648438 108.800781 C 96.960938 111.535156 95.75 113.886719 94.007812 116.078125 C 89.207031 122.121094 80.089844 124.621094 72.871094 121.773438 Z M 66.164062 233.667969 C 50.921875 232.734375 32.617188 231.652344 31.496094 212.386719 C 30.789062 200.222656 35.078125 181.320312 37.925781 169.191406 C 40.132812 159.78125 43.457031 145.71875 48.453125 137.613281 C 48.773438 137.09375 49.957031 135.085938 50.476562 135.089844 C 50.644531 135.09375 52.011719 137.527344 52.226562 137.898438 C 55.003906 142.691406 57.519531 148.488281 59.726562 153.605469 C 61.960938 158.777344 64.0625 164.050781 65.707031 169.445312 C 63.15625 179.992188 59.882812 190.800781 58.160156 201.523438 C 58.058594 202.164062 57.683594 203.601562 57.976562 204.082031 C 58.191406 204.445312 62.550781 205.480469 63.375 205.730469 C 76.820312 209.785156 90.25 213.933594 103.496094 218.59375 C 109.554688 218.710938 115.082031 216.316406 121.109375 218.023438 C 129.683594 220.457031 139.847656 230.414062 145.023438 237.558594 C 145.394531 238.074219 145.910156 238.742188 146.0625 239.363281 L 138.789062 239.363281 C 138.757812 239.363281 138.761719 239.015625 138.570312 238.792969 C 138.21875 238.386719 137.78125 238.058594 137.429688 237.652344 C 135.6875 235.625 133.90625 233.019531 132.089844 231.15625 C 131.121094 230.160156 130.238281 230.851562 130.71875 232.078125 C 132.648438 234.242188 134.542969 236.457031 136.402344 238.679688 C 136.59375 238.90625 136.835938 238.972656 136.742188 239.363281 L 131.175781 239.363281 C 131.011719 239.363281 129.292969 237.296875 129.015625 236.96875 C 128.269531 236.082031 127.3125 234.472656 126.527344 233.769531 C 125.597656 232.9375 124.753906 233.6875 125.324219 234.75 L 129.015625 239.363281 L 123.898438 239.363281 C 123.605469 239.363281 120.53125 235.421875 120.109375 234.851562 C 116.652344 234.671875 121.199219 238.132812 121.742188 239.363281 L 116.171875 239.363281 C 116.015625 239.316406 113.960938 237.59375 113.664062 237.320312 C 112.753906 236.46875 112.027344 235.460938 111.273438 234.476562 C 109.742188 233.679688 107.945312 234.328125 106.40625 234.363281 C 92.953125 234.695312 79.546875 234.488281 66.164062 233.667969 Z M 36.953125 315.058594 L 36.953125 283.527344 L 37.972656 284.898438 C 44.582031 292.574219 55.378906 292.78125 62.074219 285.125 L 63.09375 283.757812 L 63.09375 315.402344 L 36.726562 315.402344 C 36.675781 315.222656 36.953125 315.125 36.953125 315.058594 Z M 23.273438 294.074219 C 25.578125 289.152344 30.269531 285.949219 35.363281 284.4375 L 35.363281 288.082031 C 23.328125 291.367188 21.410156 309.003906 35.363281 310.847656 L 35.363281 314.261719 C 25.589844 312.890625 18.789062 303.664062 23.273438 294.074219 Z M 35.363281 289.675781 L 35.363281 309.253906 C 23.539062 307.707031 25.296875 292.621094 35.363281 289.675781 Z M 340.636719 322.230469 L 1.949219 322.230469 L 1.949219 316.996094 L 340.636719 316.996094 Z M 181.746094 282.957031 C 185.6875 278.019531 181.121094 268.503906 174.421875 269.472656 C 169.816406 270.136719 168.949219 275.777344 170.21875 279.484375 C 171.828125 284.191406 178.039062 287.601562 181.746094 282.957031 Z M 174.414062 271.058594 C 180.042969 270.042969 183.730469 278.21875 180.390625 282.28125 C 178.199219 284.945312 174.390625 283.210938 172.65625 280.910156 C 170.667969 278.269531 170.394531 271.785156 174.414062 271.058594 Z M 174.414062 271.058594 "
       fill-opacity="1"
       fill-rule="nonzero"
       id="path11" />
  </g>
</svg>
