<?xml version="1.0" encoding="UTF-8" standalone="no"?>
<svg
   width="270.27289"
   zoomAndPan="magnify"
   viewBox="0 0 202.70467 198.86631"
   height="265.15509"
   preserveAspectRatio="xMidYMid"
   version="1.0"
   id="svg23"
   xmlns="http://www.w3.org/2000/svg"
   xmlns:svg="http://www.w3.org/2000/svg">
  <defs
     id="defs1" />
  <rect
     style="fill:#ffffff;fill-opacity:1;stroke-width:12.15;stroke-linecap:round;stroke-linejoin:round;stroke-miterlimit:34.9"
     id="rect1"
     width="202.70467"
     height="198.86632"
     x="0"
     y="0"
     rx="42.086712"
     ry="42.277039" />
  <g
     fill="#1d2024"
     fill-opacity="1"
     id="g23"
     transform="translate(-10.543908,-74.403702)">
    <g
       transform="translate(51.583731,242.57124)"
       id="g22">
      <g
         id="g21">
        <path
           d="M 25.28125,-72.75 0.953125,-126.26563 c -0.375,-0.89453 -0.632813,-1.6914 -0.765625,-2.39062 C 0.0625,-129.36328 0,-130.06641 0,-130.76562 c 0,-2.23829 0.703125,-3.91407 2.109375,-5.03125 1.40625,-1.11329 2.875,-1.67188 4.40625,-1.67188 H 58.78125 c 1.59375,0 2.960938,0.21094 4.109375,0.625 1.15625,0.40625 2.113281,0.90234 2.875,1.48438 0.769531,0.57421 1.359375,1.19531 1.765625,1.85937 0.414062,0.66797 0.722656,1.25781 0.921875,1.76563 l 16.84375,46.249995 15.312505,-44.140625 c 0.38281,-1.08203 0.7539,-2.10156 1.10937,-3.0625 0.35156,-0.95703 0.76563,-1.78516 1.23438,-2.48437 0.47656,-0.70704 1.0664,-1.26563 1.76562,-1.67188 0.70703,-0.41406 1.64063,-0.625 2.79688,-0.625 h 8.79687 c 0.89453,0 1.66016,0.19531 2.29688,0.57813 0.64453,0.375 0.96875,1.01171 0.96875,1.90625 0,1.21093 -0.38672,2.80468 -1.15625,4.78125 L 96.6875,-74.859375 v 61.453125 c 0,2.242188 -0.226562,4.1875 -0.671875,5.84375 -0.449219,1.65625 -1.199219,3.046875 -2.25,4.171875 -1.054687,1.117187 -2.460937,1.960937 -4.21875,2.53125 C 87.796875,-0.285156 85.582031,0 82.90625,0 H 37.71875 C 35.226562,0 33.1875,-0.285156 31.59375,-0.859375 30,-1.429688 28.738281,-2.257812 27.8125,-3.34375 c -0.929688,-1.09375 -1.585938,-2.46875 -1.96875,-4.125 -0.375,-1.65625 -0.5625,-3.601562 -0.5625,-5.84375 z m 55.8125,64.703125 c 1.53125,0 2.769531,-0.046875 3.71875,-0.140625 0.957031,-0.09375 1.722656,-0.347656 2.296875,-0.765625 0.582031,-0.414063 0.96875,-1.019531 1.15625,-1.8125 0.1875,-0.800781 0.28125,-1.9375 0.28125,-3.40625 v -39.4375 L 61.84375,-126.46875 c -0.386719,-1.08203 -0.914062,-1.84766 -1.578125,-2.29687 -0.667969,-0.44532 -1.546875,-0.67188 -2.640625,-0.67188 h -4.59375 l 28.0625,76.59375 z m 0,0"
           id="path20" />
      </g>
    </g>
  </g>
</svg>
