<svg xmlns="http://www.w3.org/2000/svg" xmlns:xlink="http://www.w3.org/1999/xlink" width="1178" zoomAndPan="magnify" viewBox="0 0 883.5 338.999992" height="452" preserveAspectRatio="xMidYMid meet" version="1.0"><defs><g/><clipPath id="436a7f3da1"><path d="M 0 0.0976562 L 883 0.0976562 L 883 338.902344 L 0 338.902344 Z M 0 0.0976562 " clip-rule="nonzero"/></clipPath></defs><g clip-path="url(#436a7f3da1)"><path fill="#ffffff" d="M 0 0.0976562 L 883 0.0976562 L 883 338.902344 L 0 338.902344 Z M 0 0.0976562 " fill-opacity="1" fill-rule="nonzero"/></g><g fill="#1d2024" fill-opacity="1"><g transform="translate(163.380476, 233.442526)"><g><path d="M 49.109375 -16.0625 C 52.046875 -16.0625 54.90625 -16.75 57.6875 -18.125 C 60.476562 -19.507812 62.816406 -21.976562 64.703125 -25.53125 C 66.597656 -29.082031 67.546875 -33.84375 67.546875 -39.8125 L 67.546875 -89.6875 L 91.296875 -89.6875 L 91.296875 0 L 69.15625 0 L 69.15625 -11.75 C 66 -7.300781 62.066406 -3.878906 57.359375 -1.484375 C 52.648438 0.910156 47.503906 2.109375 41.921875 2.109375 C 31.953125 2.109375 24.359375 -0.535156 19.140625 -5.828125 C 13.929688 -11.128906 11.328125 -18.570312 11.328125 -28.15625 L 11.328125 -89.6875 L 35.078125 -89.6875 L 35.078125 -33.640625 C 35.078125 -27.671875 36.203125 -23.25 38.453125 -20.375 C 40.710938 -17.5 44.265625 -16.0625 49.109375 -16.0625 Z M 49.109375 -16.0625 "/></g></g></g><g fill="#1d2024" fill-opacity="1"><g transform="translate(252.57307, 233.442526)"><g><path d="M 53.34375 -105.40625 C 48.039062 -105.40625 43.597656 -104.332031 40.015625 -102.1875 C 36.441406 -100.050781 34.65625 -97.039062 34.65625 -93.15625 C 34.65625 -90.5625 35.472656 -88.347656 37.109375 -86.515625 C 38.742188 -84.679688 41.53125 -83.003906 45.46875 -81.484375 C 49.414062 -79.960938 55.023438 -78.359375 62.296875 -76.671875 C 73.234375 -74.140625 81.757812 -71.082031 87.875 -67.5 C 93.988281 -63.914062 98.269531 -59.628906 100.71875 -54.640625 C 103.175781 -49.660156 104.40625 -43.476562 104.40625 -36.09375 C 104.40625 -27.53125 102.160156 -20.390625 97.671875 -14.671875 C 93.191406 -8.953125 87.289062 -4.722656 79.96875 -1.984375 C 72.644531 0.742188 64.613281 2.109375 55.875 2.109375 C 41.84375 2.109375 30.488281 -1.46875 21.8125 -8.625 C 13.132812 -15.78125 7.835938 -26.066406 5.921875 -39.484375 L 30.859375 -42.515625 C 32.316406 -34.398438 35.085938 -28.425781 39.171875 -24.59375 C 43.265625 -20.757812 49.054688 -18.84375 56.546875 -18.84375 C 61.054688 -18.84375 65.046875 -19.476562 68.515625 -20.75 C 71.984375 -22.019531 74.675781 -23.8125 76.59375 -26.125 C 78.507812 -28.4375 79.46875 -31.171875 79.46875 -34.328125 C 79.46875 -37.929688 78.773438 -40.742188 77.390625 -42.765625 C 76.003906 -44.796875 73.296875 -46.644531 69.265625 -48.3125 C 65.242188 -49.976562 58.945312 -51.820312 50.375 -53.84375 C 40.289062 -56.269531 32.316406 -59.257812 26.453125 -62.8125 C 20.597656 -66.363281 16.441406 -70.445312 13.984375 -75.0625 C 11.535156 -79.6875 10.3125 -85.097656 10.3125 -91.296875 C 10.3125 -98.054688 12.039062 -104.054688 15.5 -109.296875 C 18.96875 -114.535156 24.023438 -118.632812 30.671875 -121.59375 C 37.328125 -124.5625 45.28125 -126.046875 54.53125 -126.046875 C 67.820312 -126.046875 78.398438 -122.988281 86.265625 -116.875 C 94.128906 -110.757812 99.019531 -101.867188 100.9375 -90.203125 L 76 -87.40625 C 75.207031 -93.832031 72.976562 -98.4375 69.3125 -101.21875 C 65.65625 -104.007812 60.332031 -105.40625 53.34375 -105.40625 Z M 53.34375 -105.40625 "/></g></g></g><g fill="#1d2024" fill-opacity="1"><g transform="translate(350.556882, 233.442526)"><g><path d="M 54.859375 -89.6875 L 54.859375 -70.84375 L 38.125 -70.84375 L 38.125 -27.140625 C 38.125 -24.546875 38.304688 -22.585938 38.671875 -21.265625 C 39.035156 -19.941406 39.679688 -19.007812 40.609375 -18.46875 C 41.546875 -17.9375 42.941406 -17.671875 44.796875 -17.671875 C 47.734375 -17.671875 50.863281 -18.117188 54.1875 -19.015625 L 57.140625 -0.671875 C 54.546875 0.171875 51.671875 0.84375 48.515625 1.34375 C 45.359375 1.851562 42.175781 2.109375 38.96875 2.109375 C 32.65625 2.109375 27.722656 1.238281 24.171875 -0.5 C 20.617188 -2.25 18.097656 -5.109375 16.609375 -9.078125 C 15.117188 -13.054688 14.375 -18.539062 14.375 -25.53125 L 14.375 -70.84375 L 1.6875 -70.84375 L 1.6875 -89.6875 L 14.375 -89.6875 L 14.375 -106.09375 L 38.125 -122.90625 L 38.125 -89.6875 Z M 54.859375 -89.6875 "/></g></g></g><g fill="#1d2024" fill-opacity="1"><g transform="translate(396.976829, 233.442526)"><g><path d="M 49.109375 -16.0625 C 52.046875 -16.0625 54.90625 -16.75 57.6875 -18.125 C 60.476562 -19.507812 62.816406 -21.976562 64.703125 -25.53125 C 66.597656 -29.082031 67.546875 -33.84375 67.546875 -39.8125 L 67.546875 -89.6875 L 91.296875 -89.6875 L 91.296875 0 L 69.15625 0 L 69.15625 -11.75 C 66 -7.300781 62.066406 -3.878906 57.359375 -1.484375 C 52.648438 0.910156 47.503906 2.109375 41.921875 2.109375 C 31.953125 2.109375 24.359375 -0.535156 19.140625 -5.828125 C 13.929688 -11.128906 11.328125 -18.570312 11.328125 -28.15625 L 11.328125 -89.6875 L 35.078125 -89.6875 L 35.078125 -33.640625 C 35.078125 -27.671875 36.203125 -23.25 38.453125 -20.375 C 40.710938 -17.5 44.265625 -16.0625 49.109375 -16.0625 Z M 49.109375 -16.0625 "/></g></g></g><g fill="#1d2024" fill-opacity="1"><g transform="translate(486.169414, 233.442526)"><g><path d="M 94.171875 0 L 72.015625 0 L 72.015625 -10.90625 L 71.6875 -10.90625 C 68.300781 -6.394531 64.394531 -3.097656 59.96875 -1.015625 C 55.550781 1.066406 50.492188 2.109375 44.796875 2.109375 C 37.304688 2.109375 30.613281 0.164062 24.71875 -3.71875 C 18.832031 -7.601562 14.226562 -13.148438 10.90625 -20.359375 C 7.582031 -27.578125 5.921875 -36.035156 5.921875 -45.734375 C 5.921875 -54.859375 7.523438 -62.898438 10.734375 -69.859375 C 13.941406 -76.828125 18.476562 -82.210938 24.34375 -86.015625 C 30.207031 -89.816406 36.972656 -91.71875 44.640625 -91.71875 C 49.878906 -91.71875 54.679688 -90.71875 59.046875 -88.71875 C 63.410156 -86.71875 67.113281 -83.859375 70.15625 -80.140625 L 70.421875 -80.140625 L 70.421875 -123.921875 L 94.171875 -123.921875 Z M 50.546875 -72.78125 C 44.128906 -72.78125 39.144531 -70.257812 35.59375 -65.21875 C 32.039062 -60.175781 30.265625 -53.285156 30.265625 -44.546875 C 30.265625 -38.679688 31.066406 -33.675781 32.671875 -29.53125 C 34.273438 -25.394531 36.554688 -22.242188 39.515625 -20.078125 C 42.472656 -17.910156 45.953125 -16.828125 49.953125 -16.828125 C 56.660156 -16.828125 61.773438 -19.25 65.296875 -24.09375 C 68.816406 -28.9375 70.578125 -35.894531 70.578125 -44.96875 C 70.578125 -50.488281 69.734375 -55.347656 68.046875 -59.546875 C 66.359375 -63.753906 63.992188 -67.007812 60.953125 -69.3125 C 57.910156 -71.625 54.441406 -72.78125 50.546875 -72.78125 Z M 50.546875 -72.78125 "/></g></g></g><g fill="#1d2024" fill-opacity="1"><g transform="translate(578.236051, 233.442526)"><g><path d="M 48.09375 -25.953125 L 48.4375 -25.953125 C 50.1875 -32.148438 51.367188 -36.179688 51.984375 -38.046875 L 69.234375 -89.6875 L 93.828125 -89.6875 L 59.34375 2.625 C 54.039062 16.65625 48.941406 25.753906 44.046875 29.921875 C 39.023438 34.203125 31.976562 36.34375 22.90625 36.34375 C 18.789062 36.34375 13.351562 35.582031 6.59375 34.0625 L 10.5625 15.890625 C 14.0625 16.960938 16.851562 17.5 18.9375 17.5 C 21.8125 17.5 24.160156 17.046875 25.984375 16.140625 C 27.816406 15.242188 29.492188 13.566406 31.015625 11.109375 C 32.546875 8.660156 34.15625 5.015625 35.84375 0.171875 L 1.515625 -89.6875 L 26.796875 -89.6875 L 44.296875 -38.625 C 45.367188 -35.582031 46.632812 -31.359375 48.09375 -25.953125 Z M 48.09375 -25.953125 "/></g></g></g><g fill="#1d2024" fill-opacity="1"><g transform="translate(51.583731, 242.571243)"><g><path d="M 25.28125 -72.75 L 0.953125 -126.265625 C 0.578125 -127.160156 0.320312 -127.957031 0.1875 -128.65625 C 0.0625 -129.363281 0 -130.066406 0 -130.765625 C 0 -133.003906 0.703125 -134.679688 2.109375 -135.796875 C 3.515625 -136.910156 4.984375 -137.46875 6.515625 -137.46875 L 58.78125 -137.46875 C 60.375 -137.46875 61.742188 -137.257812 62.890625 -136.84375 C 64.046875 -136.4375 65.003906 -135.941406 65.765625 -135.359375 C 66.535156 -134.785156 67.125 -134.164062 67.53125 -133.5 C 67.945312 -132.832031 68.253906 -132.242188 68.453125 -131.734375 L 85.296875 -85.484375 L 100.609375 -129.625 C 100.992188 -130.707031 101.363281 -131.726562 101.71875 -132.6875 C 102.070312 -133.644531 102.484375 -134.472656 102.953125 -135.171875 C 103.429688 -135.878906 104.019531 -136.4375 104.71875 -136.84375 C 105.425781 -137.257812 106.359375 -137.46875 107.515625 -137.46875 L 116.3125 -137.46875 C 117.207031 -137.46875 117.972656 -137.273438 118.609375 -136.890625 C 119.253906 -136.515625 119.578125 -135.878906 119.578125 -134.984375 C 119.578125 -133.773438 119.191406 -132.179688 118.421875 -130.203125 L 96.6875 -74.859375 L 96.6875 -13.40625 C 96.6875 -11.164062 96.460938 -9.21875 96.015625 -7.5625 C 95.566406 -5.90625 94.816406 -4.515625 93.765625 -3.390625 C 92.710938 -2.273438 91.304688 -1.429688 89.546875 -0.859375 C 87.796875 -0.285156 85.582031 0 82.90625 0 L 37.71875 0 C 35.226562 0 33.1875 -0.285156 31.59375 -0.859375 C 30 -1.429688 28.738281 -2.257812 27.8125 -3.34375 C 26.882812 -4.4375 26.226562 -5.8125 25.84375 -7.46875 C 25.46875 -9.125 25.28125 -11.070312 25.28125 -13.3125 Z M 81.09375 -8.046875 C 82.625 -8.046875 83.863281 -8.09375 84.8125 -8.1875 C 85.769531 -8.28125 86.535156 -8.535156 87.109375 -8.953125 C 87.691406 -9.367188 88.078125 -9.972656 88.265625 -10.765625 C 88.453125 -11.566406 88.546875 -12.703125 88.546875 -14.171875 L 88.546875 -53.609375 L 61.84375 -126.46875 C 61.457031 -127.550781 60.929688 -128.316406 60.265625 -128.765625 C 59.597656 -129.210938 58.71875 -129.4375 57.625 -129.4375 L 53.03125 -129.4375 L 81.09375 -52.84375 Z M 81.09375 -8.046875 "/></g></g></g></svg>